<?xml version="1.0" encoding="UTF-8"?>
<svg width="533px" height="283px" viewBox="0 0 533 283" version="1.1" xmlns="http://www.w3.org/2000/svg" xmlns:xlink="http://www.w3.org/1999/xlink">
    <!-- Generator: Sketch 41.2 (35397) - http://www.bohemiancoding.com/sketch -->
    <title>coloredschool</title>
    <desc>Created with Sketch.</desc>
    <defs></defs>
    <g id="Page-1" stroke="none" stroke-width="1" fill="none" fill-rule="evenodd">
        <g id="coloredschool">
            <path d="M17,264 C17,127.586 127.585,17 264,17 C400.414,17 511,127.586 511,264 L17,264" id="Fill-3-Copy" fill="#E4F1FE"></path>
            <path d="M514,267 C514,268.657 512.657,270 511,270 L17,270 C15.343,270 14,268.657 14,267 C14,265.343 15.343,264 17,264 L511,264 C512.657,264 514,265.343 514,267" id="Fill-4-Copy" fill="#87D37C"></path>
            <path d="M17,265 C15.897,265 15,265.897 15,267 C15,268.103 15.897,269 17,269 L511,269 C512.103,269 513,268.103 513,267 C513,265.897 512.103,265 511,265 L17,265 Z M511,271 L17,271 C14.794,271 13,269.206 13,267 C13,264.794 14.794,263 17,263 L511,263 C513.206,263 515,264.794 515,267 C515,269.206 513.206,271 511,271 L511,271 Z" id="Fill-5-Copy" fill="#6C7A89"></path>
            <path d="M84,239 C84,244.522 79.523,249 74,249 C68.479,249 64,244.522 64,239 C64,233.478 68.479,219 74,219 C79.523,219 84,233.478 84,239" id="Fill-6-Copy" fill="#87D37C"></path>
            <path d="M74,220 C69.612,220 65,233.184 65,239 C65,243.963 69.038,248 74,248 C78.962,248 83,243.963 83,239 C83,233.184 78.388,220 74,220 Z M74,250 C67.935,250 63,245.065 63,239 C63,233.765 67.442,218 74,218 C80.558,218 85,233.765 85,239 C85,245.065 80.065,250 74,250 L74,250 Z" id="Fill-7-Copy" fill="#6C7A89"></path>
            <path d="M74,265 C73.448,265 73,264.553 73,264 L73,249 C73,248.447 73.448,248 74,248 C74.552,248 75,248.447 75,249 L75,264 C75,264.553 74.552,265 74,265" id="Fill-8-Copy" fill="#6C7A89"></path>
            <path d="M139,241 C139,246.522 134.522,251 129,251 C123.478,251 119,246.522 119,241 C119,235.478 123.478,211 129,211 C134.522,211 139,235.478 139,241" id="Fill-9-Copy" fill="#66CC99"></path>
            <path d="M129,212 C124.889,212 120,234.128 120,241 C120,245.963 124.038,250 129,250 C133.962,250 138,245.963 138,241 C138,234.128 133.111,212 129,212 Z M129,252 C122.935,252 118,247.065 118,241 C118,236.314 122.102,210 129,210 C135.898,210 140,236.314 140,241 C140,247.065 135.065,252 129,252 L129,252 Z" id="Fill-10-Copy" fill="#6C7A89"></path>
            <path d="M129,265 C128.448,265 128,264.553 128,264 L128,226 C128,225.447 128.448,225 129,225 C129.552,225 130,225.447 130,226 L130,264 C130,264.553 129.552,265 129,265" id="Fill-11-Copy" fill="#6C7A89"></path>
            <path d="M129.00025,245.00025 C128.74425,245.00025 128.48825,244.90225 128.29325,244.70725 C127.90225,244.31625 127.90225,243.68425 128.29325,243.29325 L133.29325,238.29325 C133.68425,237.90225 134.31625,237.90225 134.70725,238.29325 C135.09825,238.68425 135.09825,239.31625 134.70725,239.70725 L129.70725,244.70725 C129.51225,244.90225 129.25625,245.00025 129.00025,245.00025" id="Fill-12-Copy" fill="#6C7A89"></path>
            <path d="M129.00025,237.00025 C128.74425,237.00025 128.48825,236.90225 128.29325,236.70725 L123.29325,231.70725 C122.90225,231.31625 122.90225,230.68425 123.29325,230.29325 C123.68425,229.90225 124.31625,229.90225 124.70725,230.29325 L129.70725,235.29325 C130.09825,235.68425 130.09825,236.31625 129.70725,236.70725 C129.51225,236.90225 129.25625,237.00025 129.00025,237.00025" id="Fill-13-Copy" fill="#6C7A89"></path>
            <path d="M49,265 C48.448,265 48,264.553 48,264 L48,259 C48,258.447 48.448,258 49,258 C49.553,258 50.001,258.447 50.001,259 L50.001,264 C50.001,264.553 49.553,265 49,265" id="Fill-14-Copy" fill="#6C7A89"></path>
            <polyline id="Fill-15-Copy" fill="#36D7B7" points="48.999 214 56.999 229 51.999 229 59.999 244 54.999 244 62.999 259 35 259 42.999 244 38 244 45.999 229 41 229 48.999 214"></polyline>
            <path d="M36.6665632,257.96 L61.3335632,257.96 L54.1175632,244.431 C53.9525632,244.121 53.9615632,243.747 54.1425632,243.445 C54.3235632,243.145 54.6485632,242.96 54.9995632,242.96 L58.3335632,242.96 L51.1175632,229.431 C50.9525632,229.121 50.9615632,228.747 51.1425632,228.445 C51.3235632,228.145 51.6485632,227.96 51.9995632,227.96 L55.3335632,227.96 L48.9995632,216.085 L42.6665632,227.96 L45.9995632,227.96 C46.3515632,227.96 46.6765632,228.145 46.8575632,228.445 C47.0385632,228.747 47.0475632,229.121 46.8825632,229.431 L39.6665632,242.96 L42.9995632,242.96 C43.3515632,242.96 43.6765632,243.145 43.8575632,243.445 C44.0385632,243.747 44.0475632,244.121 43.8825632,244.431 L36.6665632,257.96 Z M63.0195632,259.96 L62.9995632,259.96 L35.0005632,259.96 C34.6485632,259.96 34.3235632,259.775 34.1425632,259.475 C33.9615632,259.173 33.9525632,258.799 34.1175632,258.489 L41.3335632,244.96 L38.0005632,244.96 C37.6485632,244.96 37.3235632,244.775 37.1425632,244.475 C36.9615632,244.173 36.9525632,243.799 37.1175632,243.489 L44.3335632,229.96 L41.0005632,229.96 C40.6485632,229.96 40.3235632,229.775 40.1425632,229.475 C39.9615632,229.173 39.9525632,228.799 40.1175632,228.489 L48.1175632,213.489 C48.4655632,212.837 49.5345632,212.837 49.8825632,213.489 L57.8825632,228.489 C58.0475632,228.799 58.0385632,229.173 57.8575632,229.475 C57.6765632,229.775 57.3515632,229.96 56.9995632,229.96 L53.6665632,229.96 L60.8825632,243.489 C61.0475632,243.799 61.0385632,244.173 60.8575632,244.475 C60.6765632,244.775 60.3515632,244.96 59.9995632,244.96 L56.6665632,244.96 L63.7985632,258.332 C63.9365632,258.504 64.0205632,258.723 64.0205632,258.96 C64.0205632,259.513 63.5725632,259.96 63.0195632,259.96 L63.0195632,259.96 Z" id="Fill-16-Copy" fill="#6C7A89"></path>
            <path d="M99,265 C98.448,265 98,264.553 98,264 L98,259 C98,258.447 98.448,258 99,258 C99.553,258 100,258.447 100,259 L100,264 C100,264.553 99.553,265 99,265" id="Fill-17-Copy" fill="#6C7A89"></path>
            <polyline id="Fill-18-Copy" fill="#2ECC71" points="99 214 109 229 105 229 114 244 110 244 119 259 79 259 88 244 84 244 93 229 89 229 99 214"></polyline>
            <path d="M80.7663339,257.972 L117.233334,257.972 L109.142334,244.487 C108.957334,244.178 108.952334,243.793 109.129334,243.479 C109.307334,243.165 109.639334,242.972 109.999334,242.972 L112.233334,242.972 L104.142334,229.487 C103.957334,229.178 103.952334,228.793 104.129334,228.479 C104.307334,228.165 104.639334,227.972 104.999334,227.972 L107.131334,227.972 L98.9993339,215.775 L90.8683339,227.972 L92.9993339,227.972 C93.3603339,227.972 93.6923339,228.165 93.8703339,228.479 C94.0473339,228.793 94.0423339,229.178 93.8573339,229.487 L85.7663339,242.972 L87.9993339,242.972 C88.3603339,242.972 88.6923339,243.165 88.8703339,243.479 C89.0473339,243.793 89.0423339,244.178 88.8573339,244.487 L80.7663339,257.972 Z M119.020334,259.972 L118.999334,259.972 L78.9993339,259.972 C78.6393339,259.972 78.3073339,259.779 78.1293339,259.465 C77.9523339,259.151 77.9573339,258.766 78.1423339,258.457 L86.2333339,244.972 L83.9993339,244.972 C83.6393339,244.972 83.3073339,244.779 83.1293339,244.465 C82.9523339,244.151 82.9573339,243.766 83.1423339,243.457 L91.2333339,229.972 L88.9993339,229.972 C88.6313339,229.972 88.2923339,229.769 88.1183339,229.444 C87.9443339,229.118 87.9633339,228.724 88.1673339,228.417 L98.1673339,213.417 C98.5393339,212.861 99.4603339,212.861 99.8323339,213.417 L109.832334,228.417 C110.036334,228.724 110.055334,229.118 109.881334,229.444 C109.707334,229.769 109.368334,229.972 108.999334,229.972 L106.766334,229.972 L114.857334,243.457 C115.042334,243.766 115.047334,244.151 114.870334,244.465 C114.692334,244.779 114.360334,244.972 113.999334,244.972 L111.766334,244.972 L119.768334,258.308 C119.924334,258.485 120.020334,258.717 120.020334,258.972 C120.020334,259.525 119.572334,259.972 119.020334,259.972 L119.020334,259.972 Z" id="Fill-19-Copy" fill="#6C7A89"></path>
            <path d="M101,238.5 C101,245.404 95.404,251 88.5,251 C81.596,251 76,245.404 76,238.5 C76,231.596 81.596,226 88.5,226 C95.404,226 101,231.596 101,238.5" id="Fill-20-Copy" fill="#C8F8C5"></path>
            <path d="M88.5,227 C82.159,227 77,232.159 77,238.5 C77,244.841 82.159,250 88.5,250 C94.841,250 100,244.841 100,238.5 C100,232.159 94.841,227 88.5,227 Z M88.5,252 C81.056,252 75,245.944 75,238.5 C75,231.056 81.056,225 88.5,225 C95.944,225 102,231.056 102,238.5 C102,245.944 95.944,252 88.5,252 L88.5,252 Z" id="Fill-21-Copy" fill="#6C7A89"></path>
            <path d="M89,265 C88.448,265 88,264.553 88,264 L88,239 C88,238.447 88.448,238 89,238 C89.552,238 90,238.447 90,239 L90,264 C90,264.553 89.552,265 89,265" id="Fill-22-Copy" fill="#6C7A89"></path>
            <path d="M89.00025,248.00025 C88.74425,248.00025 88.48825,247.90225 88.29325,247.70725 C87.90225,247.31625 87.90225,246.68425 88.29325,246.29325 L93.29325,241.29325 C93.68425,240.90225 94.31625,240.90225 94.70725,241.29325 C95.09825,241.68425 95.09825,242.31625 94.70725,242.70725 L89.70725,247.70725 C89.51225,247.90225 89.25625,248.00025 89.00025,248.00025" id="Fill-23-Copy" fill="#6C7A89"></path>
            <path d="M89.00025,248.00025 C88.74425,248.00025 88.48825,247.90225 88.29325,247.70725 L83.29325,242.70725 C82.90225,242.31625 82.90225,241.68425 83.29325,241.29325 C83.68425,240.90225 84.31625,240.90225 84.70725,241.29325 L89.70725,246.29325 C90.09825,246.68425 90.09825,247.31625 89.70725,247.70725 C89.51225,247.90225 89.25625,248.00025 89.00025,248.00025" id="Fill-24-Copy" fill="#6C7A89"></path>
            <path d="M24,260 L24,260 C24,257.791 25.791,256 28,256 L140,256 C142.209,256 144,257.791 144,260 L144,264 L24,264 L24,260" id="Fill-25-Copy" fill="#3FC380"></path>
            <path d="M25,263 L143,263 L143,260 C143,258.346 141.655,257 140,257 L28,257 C26.346,257 25,258.346 25,260 L25,263 Z M144,265 L24,265 C23.448,265 23,264.553 23,264 L23,260 C23,257.243 25.243,255 28,255 L140,255 C142.757,255 145,257.243 145,260 L145,264 C145,264.553 144.553,265 144,265 L144,265 Z" id="Fill-26-Copy" fill="#6C7A89"></path>
            <polygon id="Fill-27-Copy" fill="#F1A9A0" points="234 264 294 264 294 190 234 190"></polygon>
            <path d="M235,263 L293,263 L293,191 L235,191 L235,263 Z M294,265 L234,265 C233.448,265 233,264.553 233,264 L233,190 C233,189.447 233.448,189 234,189 L294,189 C294.553,189 295,189.447 295,190 L295,264 C295,264.553 294.553,265 294,265 L294,265 Z" id="Fill-28-Copy" fill="#6C7A89"></path>
            <polygon id="Fill-29-Copy" fill="#BDC3C7" points="231 190 297 190 297 184 231 184"></polygon>
            <path d="M232,189 L296,189 L296,185 L232,185 L232,189 Z M297,191 L231,191 C230.448,191 230,190.553 230,190 L230,184 C230,183.447 230.448,183 231,183 L297,183 C297.553,183 298,183.447 298,184 L298,190 C298,190.553 297.553,191 297,191 L297,191 Z" id="Fill-30-Copy" fill="#6C7A89"></path>
            <polygon id="Fill-31-Copy" fill="#F1A9A0" points="234 184 294 184 294 178 234 178"></polygon>
            <path d="M235,183 L293,183 L293,179 L235,179 L235,183 Z M294,185 L234,185 C233.448,185 233,184.553 233,184 L233,178 C233,177.447 233.448,177 234,177 L294,177 C294.553,177 295,177.447 295,178 L295,184 C295,184.553 294.553,185 294,185 L294,185 Z" id="Fill-32-Copy" fill="#6C7A89"></path>
            <polygon id="Fill-33-Copy" fill="#FFFFFF" points="240 218 252 218 252 210 240 210"></polygon>
            <path d="M241,217 L251,217 L251,211 L241,211 L241,217 Z M252,219 L240,219 C239.448,219 239,218.553 239,218 L239,210 C239,209.447 239.448,209 240,209 L252,209 C252.552,209 253,209.447 253,210 L253,218 C253,218.553 252.552,219 252,219 L252,219 Z" id="Fill-34-Copy" fill="#6C7A89"></path>
            <path d="M246,219 C245.448,219 245,218.553 245,218 L245,210 C245,209.447 245.448,209 246,209 C246.552,209 247,209.447 247,210 L247,218 C247,218.553 246.552,219 246,219" id="Fill-35-Copy" fill="#6C7A89"></path>
            <polygon id="Fill-36-Copy" fill="#FFFFFF" points="276 218 288 218 288 210 276 210"></polygon>
            <path d="M277,217 L287,217 L287,211 L277,211 L277,217 Z M288,219 L276,219 C275.447,219 275,218.553 275,218 L275,210 C275,209.447 275.447,209 276,209 L288,209 C288.553,209 289,209.447 289,210 L289,218 C289,218.553 288.553,219 288,219 L288,219 Z" id="Fill-37-Copy" fill="#6C7A89"></path>
            <path d="M282,219 C281.447,219 281,218.553 281,218 L281,210 C281,209.447 281.447,209 282,209 C282.553,209 283,209.447 283,210 L283,218 C283,218.553 282.553,219 282,219" id="Fill-38-Copy" fill="#6C7A89"></path>
            <polygon id="Fill-39-Copy" fill="#FFFFFF" points="240 204 252 204 252 196 240 196"></polygon>
            <path d="M241,203 L251,203 L251,197 L241,197 L241,203 Z M252,205 L240,205 C239.448,205 239,204.553 239,204 L239,196 C239,195.447 239.448,195 240,195 L252,195 C252.552,195 253,195.447 253,196 L253,204 C253,204.553 252.552,205 252,205 L252,205 Z" id="Fill-40-Copy" fill="#6C7A89"></path>
            <path d="M246,205 C245.448,205 245,204.553 245,204 L245,196 C245,195.447 245.448,195 246,195 C246.552,195 247,195.447 247,196 L247,204 C247,204.553 246.552,205 246,205" id="Fill-41-Copy" fill="#6C7A89"></path>
            <polygon id="Fill-42-Copy" fill="#FFFFFF" points="276 204 288 204 288 196 276 196"></polygon>
            <path d="M277,203 L287,203 L287,197 L277,197 L277,203 Z M288,205 L276,205 C275.447,205 275,204.553 275,204 L275,196 C275,195.447 275.447,195 276,195 L288,195 C288.553,195 289,195.447 289,196 L289,204 C289,204.553 288.553,205 288,205 L288,205 Z" id="Fill-43-Copy" fill="#6C7A89"></path>
            <path d="M282,205 C281.447,205 281,204.553 281,204 L281,196 C281,195.447 281.447,195 282,195 C282.553,195 283,195.447 283,196 L283,204 C283,204.553 282.553,205 282,205" id="Fill-44-Copy" fill="#6C7A89"></path>
            <path d="M270,207 C270,210.314 267.314,213 264,213 C260.686,213 258,210.314 258,207 C258,203.686 260.686,201 264,201 C267.314,201 270,203.686 270,207" id="Fill-45-Copy" fill="#FFFFFF"></path>
            <path d="M264,202 C261.243,202 259,204.243 259,207 C259,209.757 261.243,212 264,212 C266.757,212 269,209.757 269,207 C269,204.243 266.757,202 264,202 Z M264,214 C260.14,214 257,210.859 257,207 C257,203.141 260.14,200 264,200 C267.859,200 271,203.141 271,207 C271,210.859 267.859,214 264,214 L264,214 Z" id="Fill-46-Copy" fill="#6C7A89"></path>
            <path d="M267,208 L264,208 C263.448,208 263,207.553 263,207 L263,204 C263,203.447 263.448,203 264,203 C264.552,203 265,203.447 265,204 L265,206 L267,206 C267.553,206 268,206.447 268,207 C268,207.553 267.553,208 267,208" id="Fill-47-Copy" fill="#6C7A89"></path>
            <polygon id="Fill-48-Copy" fill="#C5EFF8" points="240 234 288 234 288 224 240 224"></polygon>
            <path d="M241,233 L287,233 L287,225 L241,225 L241,233 Z M288,235 L240,235 C239.448,235 239,234.553 239,234 L239,224 C239,223.447 239.448,223 240,223 L288,223 C288.553,223 289,223.447 289,224 L289,234 C289,234.553 288.553,235 288,235 L288,235 Z" id="Fill-49-Copy" fill="#6C7A89"></path>
            <path d="M247.981,229.592 C247.981,229.895 247.903,230.167 247.747,230.408 C247.591,230.651 247.363,230.84 247.062,230.977 C246.762,231.113 246.404,231.182 245.992,231.182 C245.498,231.182 245.09,231.088 244.768,230.901 C244.541,230.767 244.355,230.587 244.213,230.362 C244.07,230.138 244,229.92 244,229.708 C244,229.585 244.042,229.48 244.128,229.392 C244.213,229.304 244.322,229.26 244.454,229.26 C244.561,229.26 244.651,229.295 244.725,229.363 C244.8,229.432 244.863,229.532 244.916,229.667 C244.979,229.826 245.048,229.96 245.122,230.067 C245.196,230.174 245.301,230.263 245.435,230.332 C245.569,230.402 245.746,230.436 245.965,230.436 C246.266,230.436 246.51,230.366 246.698,230.226 C246.886,230.086 246.98,229.911 246.98,229.701 C246.98,229.535 246.93,229.4 246.828,229.296 C246.726,229.193 246.596,229.113 246.434,229.059 C246.274,229.004 246.059,228.945 245.791,228.885 C245.431,228.8 245.129,228.701 244.887,228.589 C244.643,228.476 244.451,228.322 244.309,228.127 C244.166,227.933 244.096,227.691 244.096,227.401 C244.096,227.125 244.17,226.88 244.32,226.666 C244.471,226.452 244.688,226.287 244.974,226.172 C245.259,226.057 245.594,226 245.978,226 C246.286,226 246.552,226.038 246.776,226.114 C247.001,226.191 247.187,226.292 247.336,226.418 C247.483,226.545 247.592,226.678 247.66,226.817 C247.728,226.955 247.763,227.091 247.763,227.223 C247.763,227.344 247.72,227.453 247.635,227.55 C247.549,227.647 247.442,227.695 247.314,227.695 C247.199,227.695 247.11,227.666 247.05,227.608 C246.989,227.55 246.924,227.454 246.853,227.322 C246.763,227.133 246.653,226.986 246.525,226.88 C246.397,226.774 246.192,226.721 245.91,226.721 C245.648,226.721 245.436,226.779 245.276,226.894 C245.115,227.009 245.035,227.147 245.035,227.309 C245.035,227.409 245.062,227.495 245.117,227.569 C245.172,227.642 245.247,227.704 245.343,227.756 C245.438,227.809 245.535,227.85 245.633,227.879 C245.731,227.909 245.892,227.952 246.119,228.01 C246.401,228.075 246.657,228.149 246.886,228.229 C247.115,228.308 247.309,228.404 247.471,228.519 C247.631,228.633 247.757,228.777 247.847,228.951 C247.936,229.125 247.981,229.339 247.981,229.592" id="Fill-50-Copy" fill="#6C7A89"></path>
            <path d="M255.467,229.514 C255.467,229.673 255.428,229.846 255.35,230.031 C255.271,230.217 255.148,230.4 254.979,230.578 C254.81,230.757 254.595,230.903 254.332,231.014 C254.071,231.125 253.766,231.182 253.416,231.182 C253.153,231.182 252.913,231.156 252.696,231.106 C252.479,231.056 252.283,230.978 252.106,230.872 C251.929,230.766 251.767,230.626 251.62,230.453 C251.487,230.296 251.374,230.12 251.281,229.925 C251.187,229.731 251.118,229.523 251.071,229.301 C251.024,229.08 251,228.846 251,228.598 C251,228.194 251.059,227.833 251.176,227.514 C251.293,227.195 251.461,226.922 251.68,226.695 C251.899,226.469 252.156,226.296 252.45,226.178 C252.744,226.059 253.057,226 253.389,226 C253.795,226 254.157,226.08 254.473,226.242 C254.79,226.404 255.033,226.604 255.202,226.842 C255.37,227.08 255.454,227.305 255.454,227.518 C255.454,227.633 255.413,227.737 255.331,227.824 C255.248,227.914 255.15,227.958 255.034,227.958 C254.904,227.958 254.806,227.928 254.742,227.865 C254.676,227.805 254.604,227.698 254.524,227.548 C254.392,227.3 254.237,227.113 254.058,226.99 C253.879,226.867 253.659,226.807 253.397,226.807 C252.979,226.807 252.647,226.965 252.4,227.281 C252.153,227.598 252.03,228.048 252.03,228.631 C252.03,229.022 252.084,229.345 252.194,229.604 C252.303,229.862 252.457,230.056 252.659,230.184 C252.859,230.311 253.093,230.375 253.362,230.375 C253.654,230.375 253.901,230.302 254.102,230.157 C254.304,230.013 254.456,229.801 254.559,229.52 C254.602,229.388 254.656,229.28 254.719,229.197 C254.783,229.114 254.885,229.072 255.027,229.072 C255.148,229.072 255.251,229.114 255.338,229.199 C255.424,229.283 255.467,229.388 255.467,229.514" id="Fill-51-Copy" fill="#6C7A89"></path>
            <path d="M259.016,226.615 L259.016,228.051 L261.206,228.051 L261.206,226.615 C261.206,226.41 261.252,226.256 261.345,226.154 C261.437,226.051 261.559,226 261.709,226 C261.861,226 261.985,226.05 262.079,226.152 C262.174,226.253 262.221,226.407 262.221,226.615 L262.221,230.563 C262.221,230.77 262.174,230.925 262.078,231.028 C261.983,231.13 261.86,231.182 261.709,231.182 C261.556,231.182 261.434,231.129 261.343,231.026 C261.252,230.922 261.206,230.768 261.206,230.563 L261.206,228.877 L259.016,228.877 L259.016,230.563 C259.016,230.77 258.967,230.925 258.871,231.028 C258.776,231.13 258.653,231.182 258.502,231.182 C258.35,231.182 258.228,231.129 258.137,231.026 C258.046,230.922 258,230.768 258,230.563 L258,226.615 C258,226.41 258.045,226.256 258.135,226.154 C258.225,226.051 258.348,226 258.502,226 C258.655,226 258.778,226.05 258.873,226.152 C258.968,226.253 259.016,226.407 259.016,226.615" id="Fill-52-Copy" fill="#6C7A89"></path>
            <path d="M268.88,228.576 C268.88,228.21 268.821,227.892 268.702,227.623 C268.583,227.355 268.414,227.151 268.195,227.013 C267.975,226.875 267.722,226.807 267.437,226.807 C267.235,226.807 267.047,226.845 266.875,226.921 C266.703,226.997 266.555,227.109 266.431,227.254 C266.307,227.4 266.208,227.586 266.137,227.813 C266.065,228.039 266.029,228.294 266.029,228.576 C266.029,228.862 266.065,229.119 266.137,229.35 C266.208,229.579 266.31,229.771 266.441,229.922 C266.572,230.073 266.722,230.187 266.892,230.262 C267.062,230.337 267.248,230.375 267.45,230.375 C267.71,230.375 267.949,230.31 268.167,230.18 C268.385,230.05 268.558,229.85 268.687,229.578 C268.816,229.307 268.88,228.973 268.88,228.576 Z M267.437,226 C267.956,226 268.403,226.105 268.776,226.316 C269.148,226.527 269.43,226.826 269.621,227.215 C269.813,227.604 269.908,228.06 269.908,228.584 C269.908,228.971 269.856,229.323 269.751,229.64 C269.647,229.956 269.49,230.231 269.28,230.463 C269.07,230.695 268.813,230.873 268.507,230.996 C268.201,231.119 267.852,231.182 267.458,231.182 C267.066,231.182 266.715,231.118 266.406,230.991 C266.095,230.865 265.836,230.687 265.629,230.457 C265.422,230.227 265.265,229.949 265.159,229.626 C265.053,229.303 265,228.953 265,228.576 C265,228.192 265.056,227.838 265.166,227.518 C265.277,227.195 265.437,226.922 265.646,226.697 C265.856,226.471 266.111,226.299 266.411,226.179 C266.712,226.06 267.054,226 267.437,226 L267.437,226 Z" id="Fill-53-Copy" fill="#6C7A89"></path>
            <path d="M275.879,228.576 C275.879,228.21 275.821,227.892 275.701,227.623 C275.583,227.355 275.414,227.151 275.195,227.013 C274.975,226.875 274.722,226.807 274.438,226.807 C274.235,226.807 274.047,226.845 273.875,226.921 C273.703,226.997 273.555,227.109 273.431,227.254 C273.307,227.4 273.208,227.586 273.137,227.813 C273.065,228.039 273.03,228.294 273.03,228.576 C273.03,228.862 273.065,229.119 273.137,229.35 C273.208,229.579 273.31,229.771 273.441,229.922 C273.571,230.073 273.722,230.187 273.892,230.262 C274.062,230.337 274.248,230.375 274.451,230.375 C274.711,230.375 274.949,230.31 275.167,230.18 C275.385,230.05 275.558,229.85 275.687,229.578 C275.816,229.307 275.879,228.973 275.879,228.576 Z M274.438,226 C274.957,226 275.403,226.105 275.776,226.316 C276.148,226.527 276.43,226.826 276.621,227.215 C276.813,227.604 276.908,228.06 276.908,228.584 C276.908,228.971 276.856,229.323 276.751,229.64 C276.647,229.956 276.489,230.231 276.28,230.463 C276.07,230.695 275.813,230.873 275.507,230.996 C275.201,231.119 274.852,231.182 274.457,231.182 C274.066,231.182 273.715,231.118 273.405,230.991 C273.095,230.865 272.836,230.687 272.629,230.457 C272.422,230.227 272.265,229.949 272.159,229.626 C272.053,229.303 272,228.953 272,228.576 C272,228.192 272.056,227.838 272.166,227.518 C272.277,227.195 272.437,226.922 272.647,226.697 C272.856,226.471 273.112,226.299 273.412,226.179 C273.713,226.06 274.055,226 274.438,226 L274.438,226 Z" id="Fill-54-Copy" fill="#6C7A89"></path>
            <path d="M280.016,226.615 L280.016,230.262 L282.072,230.262 C282.236,230.262 282.362,230.302 282.45,230.381 C282.538,230.461 282.582,230.562 282.582,230.682 C282.582,230.805 282.539,230.905 282.452,230.982 C282.365,231.058 282.239,231.096 282.072,231.096 L279.622,231.096 C279.401,231.096 279.242,231.047 279.146,230.949 C279.049,230.851 279,230.693 279,230.474 L279,226.615 C279,226.41 279.046,226.256 279.139,226.154 C279.231,226.051 279.352,226 279.502,226 C279.655,226 279.778,226.05 279.873,226.152 C279.968,226.253 280.016,226.407 280.016,226.615" id="Fill-55-Copy" fill="#6C7A89"></path>
            <polygon id="Fill-56-Copy" fill="#ECECEC" points="255 264 264 264 264 244 255 244"></polygon>
            <path d="M256,263 L263,263 L263,245 L256,245 L256,263 Z M264,265 L255,265 C254.448,265 254,264.553 254,264 L254,244 C254,243.447 254.448,243 255,243 L264,243 C264.552,243 265,243.447 265,244 L265,264 C265,264.553 264.552,265 264,265 L264,265 Z" id="Fill-57-Copy" fill="#6C7A89"></path>
            <polygon id="Fill-58-Copy" fill="#ECECEC" points="246 264 255 264 255 244 246 244"></polygon>
            <path d="M247,263 L254,263 L254,245 L247,245 L247,263 Z M255,265 L246,265 C245.448,265 245,264.553 245,264 L245,244 C245,243.447 245.448,243 246,243 L255,243 C255.552,243 256,243.447 256,244 L256,264 C256,264.553 255.552,265 255,265 L255,265 Z" id="Fill-59-Copy" fill="#6C7A89"></path>
            <polygon id="Fill-60-Copy" fill="#ECECEC" points="264 264 273 264 273 244 264 244"></polygon>
            <path d="M265,263 L272,263 L272,245 L265,245 L265,263 Z M273,265 L264,265 C263.448,265 263,264.553 263,264 L263,244 C263,243.447 263.448,243 264,243 L273,243 C273.553,243 274,243.447 274,244 L274,264 C274,264.553 273.553,265 273,265 L273,265 Z" id="Fill-61-Copy" fill="#6C7A89"></path>
            <polygon id="Fill-62-Copy" fill="#ECECEC" points="273 264 282 264 282 244 273 244"></polygon>
            <path d="M274,263 L281,263 L281,245 L274,245 L274,263 Z M282,265 L273,265 C272.447,265 272,264.553 272,264 L272,244 C272,243.447 272.447,243 273,243 L282,243 C282.553,243 283,243.447 283,244 L283,264 C283,264.553 282.553,265 282,265 L282,265 Z" id="Fill-63-Copy" fill="#6C7A89"></path>
            <polygon id="Fill-64-Copy" fill="#BDC3C7" points="240 244 288 244 288 240 240 240"></polygon>
            <path d="M241,243 L287,243 L287,241 L241,241 L241,243 Z M288,245 L240,245 C239.448,245 239,244.553 239,244 L239,240 C239,239.447 239.448,239 240,239 L288,239 C288.553,239 289,239.447 289,240 L289,244 C289,244.553 288.553,245 288,245 L288,245 Z" id="Fill-65-Copy" fill="#6C7A89"></path>
            <path d="M276,259 C275.447,259 275,258.553 275,258 L275,254 C275,253.447 275.447,253 276,253 C276.553,253 277,253.447 277,254 L277,258 C277,258.553 276.553,259 276,259" id="Fill-66-Copy" fill="#6C7A89"></path>
            <path d="M270,259 C269.447,259 269,258.553 269,258 L269,254 C269,253.447 269.447,253 270,253 C270.553,253 271,253.447 271,254 L271,258 C271,258.553 270.553,259 270,259" id="Fill-67-Copy" fill="#6C7A89"></path>
            <path d="M258,259 C257.448,259 257,258.553 257,258 L257,254 C257,253.447 257.448,253 258,253 C258.552,253 259,253.447 259,254 L259,258 C259,258.553 258.552,259 258,259" id="Fill-68-Copy" fill="#6C7A89"></path>
            <path d="M252,259 C251.448,259 251,258.553 251,258 L251,254 C251,253.447 251.448,253 252,253 C252.552,253 253,253.447 253,254 L253,258 C253,258.553 252.552,259 252,259" id="Fill-69-Copy" fill="#6C7A89"></path>
            <path d="M264,173 C263.448,173 263,172.553 263,172 L263,160 C263,159.447 263.448,159 264,159 C264.552,159 265,159.447 265,160 L265,172 C265,172.553 264.552,173 264,173" id="Fill-70-Copy" fill="#6C7A89"></path>
            <polygon id="Fill-71-Copy" fill="#ECECEC" points="262 178 266 178 266 172 262 172"></polygon>
            <path d="M263,177 L265,177 L265,173 L263,173 L263,177 Z M266,179 L262,179 C261.448,179 261,178.553 261,178 L261,172 C261,171.447 261.448,171 262,171 L266,171 C266.553,171 267,171.447 267,172 L267,178 C267,178.553 266.553,179 266,179 L266,179 Z" id="Fill-72-Copy" fill="#6C7A89"></path>
            <polygon id="Fill-73-Copy" fill="#81CFE0" points="264 160 276 160 276 152 264 152"></polygon>
            <path d="M265,159 L275,159 L275,153 L265,153 L265,159 Z M276,161 L264,161 C263.448,161 263,160.553 263,160 L263,152 C263,151.447 263.448,151 264,151 L276,151 C276.553,151 277,151.447 277,152 L277,160 C277,160.553 276.553,161 276,161 L276,161 Z" id="Fill-74-Copy" fill="#6C7A89"></path>
            <polygon id="Fill-75-Copy" fill="#E08283" points="294 264 372 264 372 210 294 210"></polygon>
            <path d="M295,263 L371,263 L371,211 L295,211 L295,263 Z M372,265 L294,265 C293.447,265 293,264.553 293,264 L293,210 C293,209.447 293.447,209 294,209 L372,209 C372.553,209 373,209.447 373,210 L373,264 C373,264.553 372.553,265 372,265 L372,265 Z" id="Fill-76-Copy" fill="#6C7A89"></path>
            <polygon id="Fill-77-Copy" fill="#BDC3C7" points="294 210 375 210 375 204 294 204"></polygon>
            <path d="M295,209 L374,209 L374,205 L295,205 L295,209 Z M375,211 L294,211 C293.447,211 293,210.553 293,210 L293,204 C293,203.447 293.447,203 294,203 L375,203 C375.553,203 376,203.447 376,204 L376,210 C376,210.553 375.553,211 375,211 L375,211 Z" id="Fill-78-Copy" fill="#6C7A89"></path>
            <polygon id="Fill-79-Copy" fill="#E08283" points="294 204 372 204 372 198 294 198"></polygon>
            <path d="M295,203 L371,203 L371,199 L295,199 L295,203 Z M372,205 L294,205 C293.447,205 293,204.553 293,204 L293,198 C293,197.447 293.447,197 294,197 L372,197 C372.553,197 373,197.447 373,198 L373,204 C373,204.553 372.553,205 372,205 L372,205 Z" id="Fill-80-Copy" fill="#6C7A89"></path>
            <polygon id="Fill-81-Copy" fill="#FFFFFF" points="318 234 330 234 330 220 318 220"></polygon>
            <path d="M319,233 L329,233 L329,221 L319,221 L319,233 Z M330,235 L318,235 C317.447,235 317,234.553 317,234 L317,220 C317,219.447 317.447,219 318,219 L330,219 C330.553,219 331,219.447 331,220 L331,234 C331,234.553 330.553,235 330,235 L330,235 Z" id="Fill-82-Copy" fill="#6C7A89"></path>
            <path d="M330,226 L318,226 C317.447,226 317,225.553 317,225 C317,224.447 317.447,224 318,224 L330,224 C330.553,224 331,224.447 331,225 C331,225.553 330.553,226 330,226" id="Fill-83-Copy" fill="#6C7A89"></path>
            <polygon id="Fill-84-Copy" fill="#FFFFFF" points="354 234 366 234 366 220 354 220"></polygon>
            <path d="M355,233 L365,233 L365,221 L355,221 L355,233 Z M366,235 L354,235 C353.447,235 353,234.553 353,234 L353,220 C353,219.447 353.447,219 354,219 L366,219 C366.553,219 367,219.447 367,220 L367,234 C367,234.553 366.553,235 366,235 L366,235 Z" id="Fill-85-Copy" fill="#6C7A89"></path>
            <path d="M366,226 L354,226 C353.447,226 353,225.553 353,225 C353,224.447 353.447,224 354,224 L366,224 C366.553,224 367,224.447 367,225 C367,225.553 366.553,226 366,226" id="Fill-86-Copy" fill="#6C7A89"></path>
            <polygon id="Fill-87-Copy" fill="#FFFFFF" points="318 254 330 254 330 240 318 240"></polygon>
            <path d="M319,253 L329,253 L329,241 L319,241 L319,253 Z M330,255 L318,255 C317.447,255 317,254.553 317,254 L317,240 C317,239.447 317.447,239 318,239 L330,239 C330.553,239 331,239.447 331,240 L331,254 C331,254.553 330.553,255 330,255 L330,255 Z" id="Fill-88-Copy" fill="#6C7A89"></path>
            <path d="M330,246 L318,246 C317.447,246 317,245.553 317,245 C317,244.447 317.447,244 318,244 L330,244 C330.553,244 331,244.447 331,245 C331,245.553 330.553,246 330,246" id="Fill-89-Copy" fill="#6C7A89"></path>
            <polygon id="Fill-90-Copy" fill="#FFFFFF" points="354 254 366 254 366 240 354 240"></polygon>
            <path d="M355,253 L365,253 L365,241 L355,241 L355,253 Z M366,255 L354,255 C353.447,255 353,254.553 353,254 L353,240 C353,239.447 353.447,239 354,239 L366,239 C366.553,239 367,239.447 367,240 L367,254 C367,254.553 366.553,255 366,255 L366,255 Z" id="Fill-91-Copy" fill="#6C7A89"></path>
            <path d="M366,246 L354,246 C353.447,246 353,245.553 353,245 C353,244.447 353.447,244 354,244 L366,244 C366.553,244 367,244.447 367,245 C367,245.553 366.553,246 366,246" id="Fill-92-Copy" fill="#6C7A89"></path>
            <polygon id="Fill-93-Copy" fill="#FFFFFF" points="336 234 348 234 348 220 336 220"></polygon>
            <path d="M337,233 L347,233 L347,221 L337,221 L337,233 Z M348,235 L336,235 C335.447,235 335,234.553 335,234 L335,220 C335,219.447 335.447,219 336,219 L348,219 C348.553,219 349,219.447 349,220 L349,234 C349,234.553 348.553,235 348,235 L348,235 Z" id="Fill-94-Copy" fill="#6C7A89"></path>
            <path d="M348,226 L336,226 C335.447,226 335,225.553 335,225 C335,224.447 335.447,224 336,224 L348,224 C348.553,224 349,224.447 349,225 C349,225.553 348.553,226 348,226" id="Fill-95-Copy" fill="#6C7A89"></path>
            <polygon id="Fill-96-Copy" fill="#FFFFFF" points="336 254 348 254 348 240 336 240"></polygon>
            <path d="M337,253 L347,253 L347,241 L337,241 L337,253 Z M348,255 L336,255 C335.447,255 335,254.553 335,254 L335,240 C335,239.447 335.447,239 336,239 L348,239 C348.553,239 349,239.447 349,240 L349,254 C349,254.553 348.553,255 348,255 L348,255 Z" id="Fill-97-Copy" fill="#6C7A89"></path>
            <path d="M348,246 L336,246 C335.447,246 335,245.553 335,245 C335,244.447 335.447,244 336,244 L348,244 C348.553,244 349,244.447 349,245 C349,245.553 348.553,246 348,246" id="Fill-98-Copy" fill="#6C7A89"></path>
            <polygon id="Fill-99-Copy" fill="#FFFFFF" points="300 234 312 234 312 220 300 220"></polygon>
            <path d="M301,233 L311,233 L311,221 L301,221 L301,233 Z M312,235 L300,235 C299.447,235 299,234.553 299,234 L299,220 C299,219.447 299.447,219 300,219 L312,219 C312.553,219 313,219.447 313,220 L313,234 C313,234.553 312.553,235 312,235 L312,235 Z" id="Fill-100-Copy" fill="#6C7A89"></path>
            <path d="M312,226 L300,226 C299.447,226 299,225.553 299,225 C299,224.447 299.447,224 300,224 L312,224 C312.553,224 313,224.447 313,225 C313,225.553 312.553,226 312,226" id="Fill-101-Copy" fill="#6C7A89"></path>
            <polygon id="Fill-102-Copy" fill="#FFFFFF" points="300 254 312 254 312 240 300 240"></polygon>
            <path d="M301,253 L311,253 L311,241 L301,241 L301,253 Z M312,255 L300,255 C299.447,255 299,254.553 299,254 L299,240 C299,239.447 299.447,239 300,239 L312,239 C312.553,239 313,239.447 313,240 L313,254 C313,254.553 312.553,255 312,255 L312,255 Z" id="Fill-103-Copy" fill="#6C7A89"></path>
            <path d="M312,246 L300,246 C299.447,246 299,245.553 299,245 C299,244.447 299.447,244 300,244 L312,244 C312.553,244 313,244.447 313,245 C313,245.553 312.553,246 312,246" id="Fill-104-Copy" fill="#6C7A89"></path>
            <path d="M312,215 L294,215 C293.447,215 293,214.553 293,214 C293,213.447 293.447,213 294,213 L312,213 C312.553,213 313,213.447 313,214 C313,214.553 312.553,215 312,215" id="Fill-105-Copy" fill="#6C7A89"></path>
            <path d="M372,215 L368,215 C367.447,215 367,214.553 367,214 C367,213.447 367.447,213 368,213 L372,213 C372.553,213 373,213.447 373,214 C373,214.553 372.553,215 372,215" id="Fill-106-Copy" fill="#6C7A89"></path>
            <polygon id="Fill-107-Copy" fill="#E08283" points="156 264 234 264 234 210 156 210"></polygon>
            <path d="M157,263 L233,263 L233,211 L157,211 L157,263 Z M234,265 L156,265 C155.448,265 155,264.553 155,264 L155,210 C155,209.447 155.448,209 156,209 L234,209 C234.552,209 235,209.447 235,210 L235,264 C235,264.553 234.552,265 234,265 L234,265 Z" id="Fill-108-Copy" fill="#6C7A89"></path>
            <polygon id="Fill-109-Copy" fill="#BDC3C7" points="153 210 234 210 234 204 153 204"></polygon>
            <path d="M154,209 L233,209 L233,205 L154,205 L154,209 Z M234,211 L153,211 C152.448,211 152,210.553 152,210 L152,204 C152,203.447 152.448,203 153,203 L234,203 C234.552,203 235,203.447 235,204 L235,210 C235,210.553 234.552,211 234,211 L234,211 Z" id="Fill-110-Copy" fill="#6C7A89"></path>
            <polygon id="Fill-111-Copy" fill="#E08283" points="156 204 234 204 234 198 156 198"></polygon>
            <path d="M157,203 L233,203 L233,199 L157,199 L157,203 Z M234,205 L156,205 C155.448,205 155,204.553 155,204 L155,198 C155,197.447 155.448,197 156,197 L234,197 C234.552,197 235,197.447 235,198 L235,204 C235,204.553 234.552,205 234,205 L234,205 Z" id="Fill-112-Copy" fill="#6C7A89"></path>
            <polygon id="Fill-113-Copy" fill="#FFFFFF" points="198 234 210 234 210 220 198 220"></polygon>
            <path d="M199,233 L209,233 L209,221 L199,221 L199,233 Z M210,235 L198,235 C197.448,235 197,234.553 197,234 L197,220 C197,219.447 197.448,219 198,219 L210,219 C210.552,219 211,219.447 211,220 L211,234 C211,234.553 210.552,235 210,235 L210,235 Z" id="Fill-114-Copy" fill="#6C7A89"></path>
            <path d="M210,226 L198,226 C197.448,226 197,225.553 197,225 C197,224.447 197.448,224 198,224 L210,224 C210.552,224 211,224.447 211,225 C211,225.553 210.552,226 210,226" id="Fill-115-Copy" fill="#6C7A89"></path>
            <polygon id="Fill-116-Copy" fill="#FFFFFF" points="162 234 174 234 174 220 162 220"></polygon>
            <path d="M163,233 L173,233 L173,221 L163,221 L163,233 Z M174,235 L162,235 C161.448,235 161,234.553 161,234 L161,220 C161,219.447 161.448,219 162,219 L174,219 C174.552,219 175,219.447 175,220 L175,234 C175,234.553 174.552,235 174,235 L174,235 Z" id="Fill-117-Copy" fill="#6C7A89"></path>
            <path d="M174,226 L162,226 C161.448,226 161,225.553 161,225 C161,224.447 161.448,224 162,224 L174,224 C174.552,224 175,224.447 175,225 C175,225.553 174.552,226 174,226" id="Fill-118-Copy" fill="#6C7A89"></path>
            <polygon id="Fill-119-Copy" fill="#FFFFFF" points="198 254 210 254 210 240 198 240"></polygon>
            <path d="M199,253 L209,253 L209,241 L199,241 L199,253 Z M210,255 L198,255 C197.448,255 197,254.553 197,254 L197,240 C197,239.447 197.448,239 198,239 L210,239 C210.552,239 211,239.447 211,240 L211,254 C211,254.553 210.552,255 210,255 L210,255 Z" id="Fill-120-Copy" fill="#6C7A89"></path>
            <path d="M210,246 L198,246 C197.448,246 197,245.553 197,245 C197,244.447 197.448,244 198,244 L210,244 C210.552,244 211,244.447 211,245 C211,245.553 210.552,246 210,246" id="Fill-121-Copy" fill="#6C7A89"></path>
            <polygon id="Fill-122-Copy" fill="#FFFFFF" points="162 254 174 254 174 240 162 240"></polygon>
            <path d="M163,253 L173,253 L173,241 L163,241 L163,253 Z M174,255 L162,255 C161.448,255 161,254.553 161,254 L161,240 C161,239.447 161.448,239 162,239 L174,239 C174.552,239 175,239.447 175,240 L175,254 C175,254.553 174.552,255 174,255 L174,255 Z" id="Fill-123-Copy" fill="#6C7A89"></path>
            <path d="M174,246 L162,246 C161.448,246 161,245.553 161,245 C161,244.447 161.448,244 162,244 L174,244 C174.552,244 175,244.447 175,245 C175,245.553 174.552,246 174,246" id="Fill-124-Copy" fill="#6C7A89"></path>
            <polygon id="Fill-125-Copy" fill="#FFFFFF" points="180 234 192 234 192 220 180 220"></polygon>
            <path d="M181,233 L191,233 L191,221 L181,221 L181,233 Z M192,235 L180,235 C179.448,235 179,234.553 179,234 L179,220 C179,219.447 179.448,219 180,219 L192,219 C192.552,219 193,219.447 193,220 L193,234 C193,234.553 192.552,235 192,235 L192,235 Z" id="Fill-126-Copy" fill="#6C7A89"></path>
            <path d="M192,226 L180,226 C179.448,226 179,225.553 179,225 C179,224.447 179.448,224 180,224 L192,224 C192.552,224 193,224.447 193,225 C193,225.553 192.552,226 192,226" id="Fill-127-Copy" fill="#6C7A89"></path>
            <polygon id="Fill-128-Copy" fill="#FFFFFF" points="180 254 192 254 192 240 180 240"></polygon>
            <path d="M181,253 L191,253 L191,241 L181,241 L181,253 Z M192,255 L180,255 C179.448,255 179,254.553 179,254 L179,240 C179,239.447 179.448,239 180,239 L192,239 C192.552,239 193,239.447 193,240 L193,254 C193,254.553 192.552,255 192,255 L192,255 Z" id="Fill-129-Copy" fill="#6C7A89"></path>
            <path d="M192,246 L180,246 C179.448,246 179,245.553 179,245 C179,244.447 179.448,244 180,244 L192,244 C192.552,244 193,244.447 193,245 C193,245.553 192.552,246 192,246" id="Fill-130-Copy" fill="#6C7A89"></path>
            <polygon id="Fill-131-Copy" fill="#FFFFFF" points="216 234 228 234 228 220 216 220"></polygon>
            <path d="M217,233 L227,233 L227,221 L217,221 L217,233 Z M228,235 L216,235 C215.448,235 215,234.553 215,234 L215,220 C215,219.447 215.448,219 216,219 L228,219 C228.552,219 229,219.447 229,220 L229,234 C229,234.553 228.552,235 228,235 L228,235 Z" id="Fill-132-Copy" fill="#6C7A89"></path>
            <path d="M228,226 L216,226 C215.448,226 215,225.553 215,225 C215,224.447 215.448,224 216,224 L228,224 C228.552,224 229,224.447 229,225 C229,225.553 228.552,226 228,226" id="Fill-133-Copy" fill="#6C7A89"></path>
            <polygon id="Fill-134-Copy" fill="#FFFFFF" points="216 254 228 254 228 240 216 240"></polygon>
            <path d="M217,253 L227,253 L227,241 L217,241 L217,253 Z M228,255 L216,255 C215.448,255 215,254.553 215,254 L215,240 C215,239.447 215.448,239 216,239 L228,239 C228.552,239 229,239.447 229,240 L229,254 C229,254.553 228.552,255 228,255 L228,255 Z" id="Fill-135-Copy" fill="#6C7A89"></path>
            <path d="M228,246 L216,246 C215.448,246 215,245.553 215,245 C215,244.447 215.448,244 216,244 L228,244 C228.552,244 229,244.447 229,245 C229,245.553 228.552,246 228,246" id="Fill-136-Copy" fill="#6C7A89"></path>
            <path d="M234,215 L216,215 C215.448,215 215,214.553 215,214 C215,213.447 215.448,213 216,213 L234,213 C234.552,213 235,213.447 235,214 C235,214.553 234.552,215 234,215" id="Fill-137-Copy" fill="#6C7A89"></path>
            <path d="M160,215 L156,215 C155.448,215 155,214.553 155,214 C155,213.447 155.448,213 156,213 L160,213 C160.552,213 161,213.447 161,214 C161,214.553 160.552,215 160,215" id="Fill-138-Copy" fill="#6C7A89"></path>
            <path d="M404,259 C404,261.763 401.763,264 399,264 C396.237,264 394,261.763 394,259 C394,256.237 396.237,254 399,254 C401.763,254 404,256.237 404,259" id="Fill-139-Copy" fill="#BDC3C7"></path>
            <path d="M399,255 C396.794,255 395,256.794 395,259 C395,261.206 396.794,263 399,263 C401.206,263 403,261.206 403,259 C403,256.794 401.206,255 399,255 Z M399,265 C395.691,265 393,262.309 393,259 C393,255.691 395.691,253 399,253 C402.309,253 405,255.691 405,259 C405,262.309 402.309,265 399,265 L399,265 Z" id="Fill-140-Copy" fill="#6C7A89"></path>
            <path d="M401,259 C401,260.104 400.104,261 399,261 C397.896,261 397,260.104 397,259 C397,257.896 397.896,257 399,257 C400.104,257 401,257.896 401,259" id="Fill-141-Copy" fill="#6C7A89"></path>
            <path d="M399,258 C398.448,258 398,258.448 398,259 C398,259.552 398.448,260 399,260 C399.552,260 400,259.552 400,259 C400,258.448 399.552,258 399,258 Z M399,262 C397.346,262 396,260.654 396,259 C396,257.346 397.346,256 399,256 C400.654,256 402,257.346 402,259 C402,260.654 400.654,262 399,262 L399,262 Z" id="Fill-142-Copy" fill="#6C7A89"></path>
            <path d="M472,259 C472,261.763 469.763,264 467,264 C464.237,264 462,261.763 462,259 C462,256.237 464.237,254 467,254 C469.763,254 472,256.237 472,259" id="Fill-143-Copy" fill="#BDC3C7"></path>
            <path d="M467,255 C464.794,255 463,256.794 463,259 C463,261.206 464.794,263 467,263 C469.206,263 471,261.206 471,259 C471,256.794 469.206,255 467,255 Z M467,265 C463.691,265 461,262.309 461,259 C461,255.691 463.691,253 467,253 C470.309,253 473,255.691 473,259 C473,262.309 470.309,265 467,265 L467,265 Z" id="Fill-144-Copy" fill="#6C7A89"></path>
            <path d="M469,259 C469,260.104 468.104,261 467,261 C465.896,261 465,260.104 465,259 C465,257.896 465.896,257 467,257 C468.104,257 469,257.896 469,259" id="Fill-145-Copy" fill="#6C7A89"></path>
            <path d="M467,258 C466.448,258 466,258.448 466,259 C466,259.552 466.448,260 467,260 C467.552,260 468,259.552 468,259 C468,258.448 467.552,258 467,258 Z M467,262 C465.346,262 464,260.654 464,259 C464,257.346 465.346,256 467,256 C468.654,256 470,257.346 470,259 C470,260.654 468.654,262 467,262 L467,262 Z" id="Fill-146-Copy" fill="#6C7A89"></path>
            <path d="M407,259 L459,259 C459,254.579 462.579,251 467,251 C471.421,251 475,254.579 475,259 L497,259 L497,231 L407,231 L407,245 L390,245 L386,247 L386,259 L391,259 C391,254.579 394.579,251 399,251 C403.421,251 407,254.579 407,259" id="Fill-147-Copy" fill="#F9BF3B"></path>
            <path d="M475.944,258 L496,258 L496,232 L408,232 L408,245 C408,245.553 407.553,246 407,246 L390.236,246 L387,247.618 L387,258 L390.056,258 C390.555,253.506 394.375,250 399,250 C403.625,250 407.445,253.506 407.944,258 L458.056,258 C458.555,253.506 462.375,250 467,250 C471.625,250 475.445,253.506 475.944,258 Z M497,260 L475,260 C474.447,260 474,259.553 474,259 C474,255.141 470.859,252 467,252 C463.141,252 460,255.141 460,259 C460,259.553 459.553,260 459,260 L407,260 C406.447,260 406,259.553 406,259 C406,255.141 402.859,252 399,252 C395.141,252 392,255.141 392,259 C392,259.553 391.553,260 391,260 L386,260 C385.447,260 385,259.553 385,259 L385,247 C385,246.621 385.214,246.275 385.553,246.105 L389.553,244.105 C389.691,244.036 389.845,244 390,244 L406,244 L406,231 C406,230.447 406.447,230 407,230 L497,230 C497.553,230 498,230.447 498,231 L498,259 C498,259.553 497.553,260 497,260 L497,260 Z" id="Fill-148-Copy" fill="#6C7A89"></path>
            <path d="M404,231 L404,229 C404,227.896 404.896,227 406,227 L495,227 C496.104,227 497,227.896 497,229 L497,231 L404,231" id="Fill-149-Copy" fill="#F9BF3B"></path>
            <path d="M405,230 L496,230 L496,229 C496,228.448 495.552,228 495,228 L406,228 C405.448,228 405,228.448 405,229 L405,230 Z M497,232 L404,232 C403.447,232 403,231.553 403,231 L403,229 C403,227.346 404.346,226 406,226 L495,226 C496.654,226 498,227.346 498,229 L498,231 C498,231.553 497.553,232 497,232 L497,232 Z" id="Fill-150-Copy" fill="#6C7A89"></path>
            <polygon id="Fill-151-Copy" fill="#FFFFFF" points="411 259 416 259 416 235 411 235"></polygon>
            <path d="M412,258 L415,258 L415,236 L412,236 L412,258 Z M416,260 L411,260 C410.447,260 410,259.553 410,259 L410,235 C410,234.447 410.447,234 411,234 L416,234 C416.553,234 417,234.447 417,235 L417,259 C417,259.553 416.553,260 416,260 L416,260 Z" id="Fill-152-Copy" fill="#6C7A89"></path>
            <polygon id="Fill-153-Copy" fill="#FFFFFF" points="416 259 421 259 421 235 416 235"></polygon>
            <path d="M417,258 L420,258 L420,236 L417,236 L417,258 Z M421,260 L416,260 C415.447,260 415,259.553 415,259 L415,235 C415,234.447 415.447,234 416,234 L421,234 C421.553,234 422,234.447 422,235 L422,259 C422,259.553 421.553,260 421,260 L421,260 Z" id="Fill-154-Copy" fill="#6C7A89"></path>
            <path d="M421,250 L411,250 C410.447,250 410,249.553 410,249 C410,248.447 410.447,248 411,248 L421,248 C421.553,248 422,248.447 422,249 C422,249.553 421.553,250 421,250" id="Fill-155-Copy" fill="#6C7A89"></path>
            <polygon id="Fill-156-Copy" fill="#FFFFFF" points="429 245 441 245 441 235 429 235"></polygon>
            <path d="M430,244 L440,244 L440,236 L430,236 L430,244 Z M441,246 L429,246 C428.447,246 428,245.553 428,245 L428,235 C428,234.447 428.447,234 429,234 L441,234 C441.553,234 442,234.447 442,235 L442,245 C442,245.553 441.553,246 441,246 L441,246 Z" id="Fill-157-Copy" fill="#6C7A89"></path>
            <path d="M441,240 L429,240 C428.447,240 428,239.553 428,239 C428,238.447 428.447,238 429,238 L441,238 C441.553,238 442,238.447 442,239 C442,239.553 441.553,240 441,240" id="Fill-158-Copy" fill="#6C7A89"></path>
            <polygon id="Fill-159-Copy" fill="#FFFFFF" points="445 245 457 245 457 235 445 235"></polygon>
            <path d="M446,244 L456,244 L456,236 L446,236 L446,244 Z M457,246 L445,246 C444.447,246 444,245.553 444,245 L444,235 C444,234.447 444.447,234 445,234 L457,234 C457.553,234 458,234.447 458,235 L458,245 C458,245.553 457.553,246 457,246 L457,246 Z" id="Fill-160-Copy" fill="#6C7A89"></path>
            <path d="M457,240 L445,240 C444.447,240 444,239.553 444,239 C444,238.447 444.447,238 445,238 L457,238 C457.553,238 458,238.447 458,239 C458,239.553 457.553,240 457,240" id="Fill-161-Copy" fill="#6C7A89"></path>
            <polygon id="Fill-162-Copy" fill="#FFFFFF" points="461 245 473 245 473 235 461 235"></polygon>
            <path d="M462,244 L472,244 L472,236 L462,236 L462,244 Z M473,246 L461,246 C460.447,246 460,245.553 460,245 L460,235 C460,234.447 460.447,234 461,234 L473,234 C473.553,234 474,234.447 474,235 L474,245 C474,245.553 473.553,246 473,246 L473,246 Z" id="Fill-163-Copy" fill="#6C7A89"></path>
            <path d="M473,240 L461,240 C460.447,240 460,239.553 460,239 C460,238.447 460.447,238 461,238 L473,238 C473.553,238 474,238.447 474,239 C474,239.553 473.553,240 473,240" id="Fill-164-Copy" fill="#6C7A89"></path>
            <polygon id="Fill-165-Copy" fill="#FFFFFF" points="477 245 489 245 489 235 477 235"></polygon>
            <path d="M478,244 L488,244 L488,236 L478,236 L478,244 Z M489,246 L477,246 C476.447,246 476,245.553 476,245 L476,235 C476,234.447 476.447,234 477,234 L489,234 C489.553,234 490,234.447 490,235 L490,245 C490,245.553 489.553,246 489,246 L489,246 Z" id="Fill-166-Copy" fill="#6C7A89"></path>
            <path d="M489,240 L477,240 C476.447,240 476,239.553 476,239 C476,238.447 476.447,238 477,238 L489,238 C489.553,238 490,238.447 490,239 C490,239.553 489.553,240 489,240" id="Fill-167-Copy" fill="#6C7A89"></path>
            <path d="M461,250 L429,250 C428.447,250 428,249.553 428,249 C428,248.447 428.447,248 429,248 L461,248 C461.553,248 462,248.447 462,249 C462,249.553 461.553,250 461,250" id="Fill-168-Copy" fill="#6C7A89"></path>
            <path d="M457,255 L429,255 C428.447,255 428,254.553 428,254 C428,253.447 428.447,253 429,253 L457,253 C457.553,253 458,253.447 458,254 C458,254.553 457.553,255 457,255" id="Fill-169-Copy" fill="#6C7A89"></path>
            <path d="M489,250 L473,250 C472.447,250 472,249.553 472,249 C472,248.447 472.447,248 473,248 L489,248 C489.553,248 490,248.447 490,249 C490,249.553 489.553,250 489,250" id="Fill-170-Copy" fill="#6C7A89"></path>
            <path d="M489,255 L477,255 C476.447,255 476,254.553 476,254 C476,253.447 476.447,253 477,253 L489,253 C489.553,253 490,253.447 490,254 C490,254.553 489.553,255 489,255" id="Fill-171-Copy" fill="#6C7A89"></path>
            <polygon id="Fill-172-Copy" fill="#FFFFFF" points="386 253 390 253 390 249 386 249"></polygon>
            <path d="M387,252 L389,252 L389,250 L387,250 L387,252 Z M390,254 L386,254 C385.447,254 385,253.553 385,253 L385,249 C385,248.447 385.447,248 386,248 L390,248 C390.553,248 391,248.447 391,249 L391,253 C391,253.553 390.553,254 390,254 L390,254 Z" id="Fill-173-Copy" fill="#6C7A89"></path>
            <polygon id="Fill-174-Copy" fill="#FFFFFF" points="493 253 497 253 497 249 493 249"></polygon>
            <path d="M494,252 L496,252 L496,250 L494,250 L494,252 Z M497,254 L493,254 C492.447,254 492,253.553 492,253 L492,249 C492,248.447 492.447,248 493,248 L497,248 C497.553,248 498,248.447 498,249 L498,253 C498,253.553 497.553,254 497,254 L497,254 Z" id="Fill-175-Copy" fill="#6C7A89"></path>
            <path d="M331,134 C325.478,134 321,129.522 321,124 C321,118.478 325.478,114 331,114 C331,102.953 339.953,94 351,94 C362.047,94 371,102.953 371,114 C376.523,114 381,118.477 381,124 C383.762,124 386,126.238 386,129 C386,131.762 383.762,134 381,134 L331,134" id="Fill-176-Copy" fill="#FFFFFF"></path>
            <path d="M351,95 C340.523,95 332,103.523 332,114 C332,114.553 331.553,115 331,115 C326.037,115 322,119.037 322,124 C322,128.963 326.037,133 331,133 L381,133 C383.206,133 385,131.206 385,129 C385,126.794 383.206,125 381,125 C380.447,125 380,124.553 380,124 C380,119.037 375.963,115 371,115 C370.447,115 370,114.553 370,114 C370,103.523 361.477,95 351,95 Z M381,135 L331,135 C324.935,135 320,130.065 320,124 C320,118.265 324.413,113.54 330.021,113.043 C330.523,101.906 339.741,93 351,93 C362.259,93 371.477,101.906 371.979,113.043 C377.283,113.513 381.518,117.765 381.962,123.077 C384.814,123.539 387,126.019 387,129 C387,132.309 384.309,135 381,135 L381,135 Z" id="Fill-177-Copy" fill="#6C7A89"></path>
            <path d="M334,115 C333.447,115 333,114.553 333,114 C333,104.075 341.075,96 351,96 C351.553,96 352,96.447 352,97 C352,97.553 351.553,98 351,98 C342.178,98 335,105.178 335,114 C335,114.553 334.553,115 334,115" id="Fill-178-Copy" fill="#6C7A89"></path>
            <path d="M324,125 C323.447,125 323,124.553 323,124 C323,119.589 326.589,116 331,116 C331.553,116 332,116.447 332,117 C332,117.553 331.553,118 331,118 C327.691,118 325,120.691 325,124 C325,124.553 324.553,125 324,125" id="Fill-179-Copy" fill="#6C7A89"></path>
            <path d="M191,94 C191,88.478 195.478,84 201,84 C206.523,84 211,88.478 211,94 C216.523,94 221,98.477 221,104 C223.762,104 226,106.238 226,109 C226,111.762 223.762,114 221,114 L191,114 C185.478,114 181,109.522 181,104 C181,98.478 185.478,94 191,94" id="Fill-180-Copy" fill="#FFFFFF"></path>
            <path d="M201,85 C196.038,85 192,89.037 192,94 C192,94.553 191.552,95 191,95 C186.038,95 182,99.037 182,104 C182,108.963 186.038,113 191,113 L221,113 C223.206,113 225,111.206 225,109 C225,106.794 223.206,105 221,105 C220.448,105 220,104.553 220,104 C220,99.037 215.962,95 211,95 C210.448,95 210,94.553 210,94 C210,89.037 205.962,85 201,85 Z M221,115 L191,115 C184.935,115 180,110.065 180,104 C180,98.258 184.423,93.528 190.042,93.041 C190.528,87.423 195.257,83 201,83 C206.743,83 211.472,87.423 211.958,93.041 C217.273,93.502 221.518,97.758 221.961,103.077 C224.814,103.539 227,106.019 227,109 C227,112.309 224.309,115 221,115 L221,115 Z" id="Fill-181-Copy" fill="#6C7A89"></path>
            <path d="M194,95 C193.448,95 193,94.553 193,94 C193,89.589 196.589,86 201,86 C201.552,86 202,86.447 202,87 C202,87.553 201.552,88 201,88 C197.691,88 195,90.691 195,94 C195,94.553 194.552,95 194,95" id="Fill-182-Copy" fill="#6C7A89"></path>
            <path d="M184,105 C183.448,105 183,104.553 183,104 C183,99.589 186.589,96 191,96 C191.552,96 192,96.447 192,97 C192,97.553 191.552,98 191,98 C187.691,98 185,100.691 185,104 C185,104.553 184.552,105 184,105" id="Fill-183-Copy" fill="#6C7A89"></path>
            <path d="M431,181 C430.447,181 430,180.553 430,180 C430,175.037 425.963,171 421,171 C420.447,171 420,170.553 420,170 C420,165.037 415.963,161 411,161 C406.037,161 402,165.037 402,170 C402,170.553 401.553,171 401,171 C399.346,171 398,172.346 398,174 C398,174.553 397.553,175 397,175 L377,175 C376.447,175 376,174.553 376,174 C376,173.447 376.447,173 377,173 L396.101,173 C396.502,171.031 398.063,169.479 400.037,169.093 C400.5,163.45 405.24,159 411,159 C416.742,159 421.472,163.423 421.959,169.041 C427.577,169.528 432,174.258 432,180 C432,180.553 431.553,181 431,181" id="Fill-184-Copy" fill="#6C7A89"></path>
            <path d="M407,180 L387,180 C386.447,180 386,179.553 386,179 C386,178.447 386.447,178 387,178 L407,178 C407.553,178 408,178.447 408,179 C408,179.553 407.553,180 407,180" id="Fill-185-Copy" fill="#6C7A89"></path>
            <path d="M444,185 L424,185 C423.447,185 423,184.553 423,184 C423,181.794 421.206,180 419,180 C418.447,180 418,179.553 418,179 C418,178.447 418.447,178 419,178 C421.968,178 424.439,180.166 424.917,183 L444,183 C444.553,183 445,183.447 445,184 C445,184.553 444.553,185 444,185" id="Fill-186-Copy" fill="#6C7A89"></path>
            <path d="M91,180 L61,180 C60.448,180 60,179.553 60,179 C60,178.447 60.448,178 61,178 L90.083,178 C90.508,175.479 92.512,173.486 95.039,173.077 C95.482,167.758 99.727,163.502 105.042,163.041 C105.528,157.423 110.257,153 116,153 C121.743,153 126.472,157.423 126.958,163.041 C132.577,163.528 137,168.258 137,174 C137,174.553 136.552,175 136,175 C135.448,175 135,174.553 135,174 C135,169.037 130.962,165 126,165 C125.448,165 125,164.553 125,164 C125,159.037 120.962,155 116,155 C111.038,155 107,159.037 107,164 C107,164.553 106.552,165 106,165 C101.038,165 97,169.037 97,174 C97,174.553 96.552,175 96,175 C93.794,175 92,176.794 92,179 C92,179.553 91.552,180 91,180" id="Fill-187-Copy" fill="#6C7A89"></path>
            <path d="M151,185 L131,185 C130.448,185 130,184.553 130,184 C130,181.794 128.206,180 126,180 C125.448,180 125,179.553 125,179 C125,174.037 120.962,170 116,170 C115.448,170 115,169.553 115,169 C115,168.447 115.448,168 116,168 C121.754,168 126.491,172.442 126.961,178.077 C129.488,178.486 131.492,180.479 131.917,183 L151,183 C151.552,183 152,183.447 152,184 C152,184.553 151.552,185 151,185" id="Fill-188-Copy" fill="#6C7A89"></path>
            <path d="M104,190 L74,190 C73.448,190 73,189.553 73,189 C73,188.447 73.448,188 74,188 L104,188 C104.552,188 105,188.447 105,189 C105,189.553 104.552,190 104,190" id="Fill-189-Copy" fill="#6C7A89"></path>
        </g>
    </g>
</svg>