<?xml version="1.0" encoding="UTF-8"?>
<svg width="804px" height="362px" viewBox="0 0 804 362" version="1.1" xmlns="http://www.w3.org/2000/svg" xmlns:xlink="http://www.w3.org/1999/xlink">
    <!-- Generator: Sketch 41.2 (35397) - http://www.bohemiancoding.com/sketch -->
    <title>school</title>
    <desc>Created with Sketch.</desc>
    <defs></defs>
    <g id="Page-1" stroke="none" stroke-width="1" fill="none" fill-rule="evenodd">
        <g id="school">
            <path d="M784.460159,339.851064 C784.460159,342.398261 782.392153,344.462766 779.840637,344.462766 L19.1593625,344.462766 C16.6078466,344.462766 14.5398406,342.398261 14.5398406,339.851064 C14.5398406,337.303867 16.6078466,335.239362 19.1593625,335.239362 L779.840637,335.239362 C782.392153,335.239362 784.460159,337.303867 784.460159,339.851064" id="Fill-190" stroke="#979797"></path>
            <path d="M19.1593625,336.776596 C17.4609183,336.776596 16.0796813,338.155495 16.0796813,339.851064 C16.0796813,341.546633 17.4609183,342.925532 19.1593625,342.925532 L779.840637,342.925532 C781.539082,342.925532 782.920319,341.546633 782.920319,339.851064 C782.920319,338.155495 781.539082,336.776596 779.840637,336.776596 L19.1593625,336.776596 Z M779.840637,346 L19.1593625,346 C15.7624741,346 13,343.242202 13,339.851064 C13,336.459926 15.7624741,333.702128 19.1593625,333.702128 L779.840637,333.702128 C783.237526,333.702128 786,336.459926 786,339.851064 C786,343.242202 783.237526,346 779.840637,346 L779.840637,346 Z" id="Fill-191" stroke="#FFFFFF" fill="#FFFFFF"></path>
            <path d="M122.328685,296.808511 C122.328685,305.297117 115.434819,312.180851 106.930279,312.180851 C98.4288187,312.180851 91.5318725,305.297117 91.5318725,296.808511 C91.5318725,288.319904 98.4288187,266.06383 106.930279,266.06383 C115.434819,266.06383 122.328685,288.319904 122.328685,296.808511" id="Fill-192" stroke="#979797"></path>
            <path d="M106.930279,267.601064 C100.173458,267.601064 93.0717131,287.867957 93.0717131,296.808511 C93.0717131,304.436266 99.2895896,310.643617 106.930279,310.643617 C114.570968,310.643617 120.788845,304.436266 120.788845,296.808511 C120.788845,287.867957 113.6871,267.601064 106.930279,267.601064 Z M106.930279,313.718085 C97.5911454,313.718085 89.9920319,306.131835 89.9920319,296.808511 C89.9920319,288.76109 96.832004,264.526596 106.930279,264.526596 C117.028554,264.526596 123.868526,288.76109 123.868526,296.808511 C123.868526,306.131835 116.269412,313.718085 106.930279,313.718085 L106.930279,313.718085 Z" id="Fill-193" stroke="#FFFFFF" fill="#FFFFFF"></path>
            <path d="M106.930279,336.776596 C106.080287,336.776596 105.390438,336.087915 105.390438,335.239362 L105.390438,312.180851 C105.390438,311.332298 106.080287,310.643617 106.930279,310.643617 C107.780271,310.643617 108.47012,311.332298 108.47012,312.180851 L108.47012,335.239362 C108.47012,336.087915 107.780271,336.776596 106.930279,336.776596" id="Fill-194" stroke="#FFFFFF" fill="#FFFFFF"></path>
            <path d="M207.01992,299.882979 C207.01992,308.371585 200.124514,315.255319 191.621514,315.255319 C183.118514,315.255319 176.223108,308.371585 176.223108,299.882979 C176.223108,291.394372 183.118514,253.765957 191.621514,253.765957 C200.124514,253.765957 207.01992,291.394372 207.01992,299.882979" id="Fill-195" stroke="#FFFFFF"></path>
            <path d="M191.621514,255.303191 C185.291229,255.303191 177.762948,289.319106 177.762948,299.882979 C177.762948,307.510734 183.980825,313.718085 191.621514,313.718085 C199.262203,313.718085 205.48008,307.510734 205.48008,299.882979 C205.48008,289.319106 197.951799,255.303191 191.621514,255.303191 Z M191.621514,316.792553 C182.28238,316.792553 174.683267,309.206303 174.683267,299.882979 C174.683267,292.6795 180.999693,252.228723 191.621514,252.228723 C202.243335,252.228723 208.559761,292.6795 208.559761,299.882979 C208.559761,309.206303 200.960647,316.792553 191.621514,316.792553 L191.621514,316.792553 Z" id="Fill-196" stroke="#FFFFFF" fill="#FFFFFF"></path>
            <path d="M191.621514,336.776596 C190.771522,336.776596 190.081673,336.087915 190.081673,335.239362 L190.081673,276.824468 C190.081673,275.975915 190.771522,275.287234 191.621514,275.287234 C192.471506,275.287234 193.161355,275.975915 193.161355,276.824468 L193.161355,335.239362 C193.161355,336.087915 192.471506,336.776596 191.621514,336.776596" id="Fill-197" stroke="#FFFFFF" fill="#FFFFFF"></path>
            <path d="M191.621514,306.031915 C191.227315,306.031915 190.833116,305.881266 190.532847,305.581505 C189.930769,304.980447 189.930769,304.008915 190.532847,303.407856 L198.23205,295.721686 C198.834127,295.120628 199.807307,295.120628 200.409384,295.721686 C201.011462,296.322745 201.011462,297.294277 200.409384,297.895335 L192.710181,305.581505 C192.409912,305.881266 192.015713,306.031915 191.621514,306.031915" id="Fill-198" stroke="#FFFFFF" fill="#FFFFFF"></path>
            <path d="M191.621514,293.734043 C191.227315,293.734043 190.833116,293.583394 190.532847,293.283633 L182.833643,285.597463 C182.231566,284.996404 182.231566,284.024872 182.833643,283.423814 C183.435721,282.822755 184.4089,282.822755 185.010978,283.423814 L192.710181,291.109984 C193.312259,291.711043 193.312259,292.682574 192.710181,293.283633 C192.409912,293.583394 192.015713,293.734043 191.621514,293.734043" id="Fill-199" stroke="#FFFFFF" fill="#FFFFFF"></path>
            <path d="M68.4342629,336.776596 C67.5842709,336.776596 66.8944223,336.087915 66.8944223,335.239362 L66.8944223,327.553191 C66.8944223,326.704638 67.5842709,326.015957 68.4342629,326.015957 C69.2857948,326.015957 69.9756434,326.704638 69.9756434,327.553191 L69.9756434,335.239362 C69.9756434,336.087915 69.2857948,336.776596 68.4342629,336.776596" id="Fill-200" stroke="#FFFFFF" fill="#FFFFFF"></path>
            <polyline id="Fill-201" stroke="#979797" points="68.4342629 258.37766 80.752988 281.43617 73.0537849 281.43617 85.37251 304.494681 77.6733068 304.494681 89.9920319 327.553191 46.8780339 327.553191 59.1952191 304.494681 51.4975558 304.494681 63.814741 281.43617 56.1170777 281.43617 68.4342629 258.37766"></polyline>
            <path d="M49.4434084,326.015957 L87.4266574,326.015957 L76.3151673,305.218718 C76.0610936,304.742176 76.0749522,304.16725 76.3536633,303.703005 C76.6323745,303.240298 77.1328227,302.957447 77.6733068,302.957447 L82.8071355,302.957447 L71.6956454,282.160207 C71.4415717,281.683665 71.4554303,281.108739 71.7341414,280.644495 C72.0128526,280.181787 72.5133008,279.898936 73.0537849,279.898936 L78.1876135,279.898936 L68.4342629,261.644282 L58.6824522,279.898936 L63.814741,279.898936 C64.3567649,279.898936 64.8572131,280.181787 65.1359243,280.644495 C65.4146355,281.108739 65.428494,281.683665 65.1744203,282.160207 L54.0629303,302.957447 L59.1952191,302.957447 C59.737243,302.957447 60.2376912,303.240298 60.5164024,303.703005 C60.7951135,304.16725 60.8089721,304.742176 60.5548984,305.218718 L49.4434084,326.015957 Z M90.0228287,329.090426 L89.9920319,329.090426 L46.8780339,329.090426 C46.33601,329.090426 45.8355618,328.807574 45.5568506,328.344867 C45.2781394,327.880622 45.2642809,327.305697 45.5183546,326.829154 L56.6298446,306.031915 L51.4975558,306.031915 C50.9555319,306.031915 50.4550837,305.749064 50.1763725,305.286356 C49.8976614,304.822112 49.8838028,304.247186 50.1378765,303.770644 L61.2493665,282.973404 L56.1170777,282.973404 C55.5750538,282.973404 55.0746056,282.690553 54.7958944,282.227846 C54.5171833,281.763601 54.5033247,281.188676 54.7573984,280.712133 L67.0761235,257.653622 C67.611988,256.652883 69.2580777,256.652883 69.7939422,257.653622 L82.1126673,280.712133 C82.366741,281.188676 82.3528825,281.763601 82.0741713,282.227846 C81.7954602,282.690553 81.295012,282.973404 80.752988,282.973404 L75.6206992,282.973404 L86.7321892,303.770644 C86.9862629,304.247186 86.9724044,304.822112 86.6936932,305.286356 C86.4149821,305.749064 85.9145339,306.031915 85.37251,306.031915 L80.2402211,306.031915 L91.2223645,326.589346 C91.4348625,326.852213 91.5642092,327.18733 91.5642092,327.553191 C91.5642092,328.401745 90.8743606,329.090426 90.0228287,329.090426 L90.0228287,329.090426 Z" id="Fill-202" stroke="#FFFFFF" fill="#FFFFFF"></path>
            <path d="M145.426295,336.776596 C144.576303,336.776596 143.886454,336.087915 143.886454,335.239362 L143.886454,327.553191 C143.886454,326.704638 144.576303,326.015957 145.426295,326.015957 C146.277827,326.015957 146.966135,326.704638 146.966135,327.553191 L146.966135,335.239362 C146.966135,336.087915 146.277827,336.776596 145.426295,336.776596" id="Fill-203" stroke="#FFFFFF" fill="#FFFFFF"></path>
            <polyline id="Fill-204" stroke="#FFFFFF" points="145.426295 258.37766 160.824701 281.43617 154.665339 281.43617 168.523904 304.494681 162.364542 304.494681 176.223108 327.553191 114.629482 327.553191 128.488048 304.494681 122.328685 304.494681 136.187251 281.43617 130.027888 281.43617 145.426295 258.37766"></polyline>
            <path d="M117.35038,326.015957 L173.503749,326.015957 L161.044898,305.286356 C160.760028,304.811351 160.752329,304.219516 161.02488,303.736824 C161.298972,303.25567 161.810199,302.957447 162.364542,302.957447 L165.804546,302.957447 L153.345695,282.227846 C153.060825,281.75284 153.053125,281.161005 153.325677,280.678314 C153.599769,280.19716 154.110996,279.898936 154.665339,279.898936 L157.948279,279.898936 L145.426295,261.149293 L132.905851,279.898936 L136.187251,279.898936 C136.743133,279.898936 137.254361,280.19716 137.528452,280.678314 C137.801004,281.161005 137.793305,281.75284 137.508434,282.227846 L125.049584,302.957447 L128.488048,302.957447 C129.04393,302.957447 129.555157,303.25567 129.829249,303.736824 C130.101801,304.219516 130.094102,304.811351 129.809231,305.286356 L117.35038,326.015957 Z M176.255444,329.090426 L176.223108,329.090426 L114.629482,329.090426 C114.075139,329.090426 113.563912,328.792202 113.289821,328.311048 C113.017269,327.828356 113.024968,327.236521 113.309839,326.761516 L125.768689,306.031915 L122.328685,306.031915 C121.774343,306.031915 121.263116,305.733691 120.989024,305.252537 C120.716472,304.769846 120.724171,304.178011 121.009042,303.703005 L133.467892,282.973404 L130.027888,282.973404 C129.461227,282.973404 128.939221,282.661346 128.671289,282.161745 C128.403357,281.660606 128.432614,281.054936 128.746741,280.583005 L144.145147,257.524495 C144.717968,256.669793 146.136161,256.669793 146.708982,257.524495 L162.107388,280.583005 C162.421516,281.054936 162.450773,281.660606 162.182841,282.161745 C161.914908,282.661346 161.392902,282.973404 160.824701,282.973404 L157.386237,282.973404 L169.845088,303.703005 C170.129958,304.178011 170.137657,304.769846 169.865106,305.252537 C169.591014,305.733691 169.079787,306.031915 168.523904,306.031915 L165.08544,306.031915 L177.407245,326.532468 C177.64746,326.804559 177.795285,327.161197 177.795285,327.553191 C177.795285,328.401745 177.105436,329.090426 176.255444,329.090426 L176.255444,329.090426 Z" id="Fill-205" stroke="#FFFFFF" fill="#FFFFFF"></path>
            <path d="M667.328685,296.808511 C667.328685,305.297117 660.434819,312.180851 651.930279,312.180851 C643.428819,312.180851 636.531873,305.297117 636.531873,296.808511 C636.531873,288.319904 643.428819,266.06383 651.930279,266.06383 C660.434819,266.06383 667.328685,288.319904 667.328685,296.808511" id="Fill-192-Copy" stroke="#979797"></path>
            <path d="M651.930279,267.601064 C645.173458,267.601064 638.071713,287.867957 638.071713,296.808511 C638.071713,304.436266 644.28959,310.643617 651.930279,310.643617 C659.570968,310.643617 665.788845,304.436266 665.788845,296.808511 C665.788845,287.867957 658.6871,267.601064 651.930279,267.601064 Z M651.930279,313.718085 C642.591145,313.718085 634.992032,306.131835 634.992032,296.808511 C634.992032,288.76109 641.832004,264.526596 651.930279,264.526596 C662.028554,264.526596 668.868526,288.76109 668.868526,296.808511 C668.868526,306.131835 661.269412,313.718085 651.930279,313.718085 L651.930279,313.718085 Z" id="Fill-193-Copy" stroke="#FFFFFF" fill="#FFFFFF"></path>
            <path d="M651.930279,336.776596 C651.080287,336.776596 650.390438,336.087915 650.390438,335.239362 L650.390438,312.180851 C650.390438,311.332298 651.080287,310.643617 651.930279,310.643617 C652.780271,310.643617 653.47012,311.332298 653.47012,312.180851 L653.47012,335.239362 C653.47012,336.087915 652.780271,336.776596 651.930279,336.776596" id="Fill-194-Copy" stroke="#FFFFFF" fill="#FFFFFF"></path>
            <path d="M752.01992,299.882979 C752.01992,308.371585 745.124514,315.255319 736.621514,315.255319 C728.118514,315.255319 721.223108,308.371585 721.223108,299.882979 C721.223108,291.394372 728.118514,253.765957 736.621514,253.765957 C745.124514,253.765957 752.01992,291.394372 752.01992,299.882979" id="Fill-195-Copy" stroke="#FFFFFF"></path>
            <path d="M736.621514,255.303191 C730.291229,255.303191 722.762948,289.319106 722.762948,299.882979 C722.762948,307.510734 728.980825,313.718085 736.621514,313.718085 C744.262203,313.718085 750.48008,307.510734 750.48008,299.882979 C750.48008,289.319106 742.951799,255.303191 736.621514,255.303191 Z M736.621514,316.792553 C727.28238,316.792553 719.683267,309.206303 719.683267,299.882979 C719.683267,292.6795 725.999693,252.228723 736.621514,252.228723 C747.243335,252.228723 753.559761,292.6795 753.559761,299.882979 C753.559761,309.206303 745.960647,316.792553 736.621514,316.792553 L736.621514,316.792553 Z" id="Fill-196-Copy" stroke="#FFFFFF" fill="#FFFFFF"></path>
            <path d="M736.621514,336.776596 C735.771522,336.776596 735.081673,336.087915 735.081673,335.239362 L735.081673,276.824468 C735.081673,275.975915 735.771522,275.287234 736.621514,275.287234 C737.471506,275.287234 738.161355,275.975915 738.161355,276.824468 L738.161355,335.239362 C738.161355,336.087915 737.471506,336.776596 736.621514,336.776596" id="Fill-197-Copy" stroke="#FFFFFF" fill="#FFFFFF"></path>
            <path d="M736.621514,306.031915 C736.227315,306.031915 735.833116,305.881266 735.532847,305.581505 C734.930769,304.980447 734.930769,304.008915 735.532847,303.407856 L743.23205,295.721686 C743.834127,295.120628 744.807307,295.120628 745.409384,295.721686 C746.011462,296.322745 746.011462,297.294277 745.409384,297.895335 L737.710181,305.581505 C737.409912,305.881266 737.015713,306.031915 736.621514,306.031915" id="Fill-198-Copy" stroke="#FFFFFF" fill="#FFFFFF"></path>
            <path d="M736.621514,293.734043 C736.227315,293.734043 735.833116,293.583394 735.532847,293.283633 L727.833643,285.597463 C727.231566,284.996404 727.231566,284.024872 727.833643,283.423814 C728.435721,282.822755 729.4089,282.822755 730.010978,283.423814 L737.710181,291.109984 C738.312259,291.711043 738.312259,292.682574 737.710181,293.283633 C737.409912,293.583394 737.015713,293.734043 736.621514,293.734043" id="Fill-199-Copy" stroke="#FFFFFF" fill="#FFFFFF"></path>
            <path d="M613.434263,336.776596 C612.584271,336.776596 611.894422,336.087915 611.894422,335.239362 L611.894422,327.553191 C611.894422,326.704638 612.584271,326.015957 613.434263,326.015957 C614.285795,326.015957 614.975643,326.704638 614.975643,327.553191 L614.975643,335.239362 C614.975643,336.087915 614.285795,336.776596 613.434263,336.776596" id="Fill-200-Copy" stroke="#FFFFFF" fill="#FFFFFF"></path>
            <polyline id="Fill-201-Copy" stroke="#979797" points="613.434263 258.37766 625.752988 281.43617 618.053785 281.43617 630.37251 304.494681 622.673307 304.494681 634.992032 327.553191 591.878034 327.553191 604.195219 304.494681 596.497556 304.494681 608.814741 281.43617 601.117078 281.43617 613.434263 258.37766"></polyline>
            <path d="M594.443408,326.015957 L632.426657,326.015957 L621.315167,305.218718 C621.061094,304.742176 621.074952,304.16725 621.353663,303.703005 C621.632375,303.240298 622.132823,302.957447 622.673307,302.957447 L627.807135,302.957447 L616.695645,282.160207 C616.441572,281.683665 616.45543,281.108739 616.734141,280.644495 C617.012853,280.181787 617.513301,279.898936 618.053785,279.898936 L623.187614,279.898936 L613.434263,261.644282 L603.682452,279.898936 L608.814741,279.898936 C609.356765,279.898936 609.857213,280.181787 610.135924,280.644495 C610.414635,281.108739 610.428494,281.683665 610.17442,282.160207 L599.06293,302.957447 L604.195219,302.957447 C604.737243,302.957447 605.237691,303.240298 605.516402,303.703005 C605.795114,304.16725 605.808972,304.742176 605.554898,305.218718 L594.443408,326.015957 Z M635.022829,329.090426 L634.992032,329.090426 L591.878034,329.090426 C591.33601,329.090426 590.835562,328.807574 590.556851,328.344867 C590.278139,327.880622 590.264281,327.305697 590.518355,326.829154 L601.629845,306.031915 L596.497556,306.031915 C595.955532,306.031915 595.455084,305.749064 595.176373,305.286356 C594.897661,304.822112 594.883803,304.247186 595.137876,303.770644 L606.249367,282.973404 L601.117078,282.973404 C600.575054,282.973404 600.074606,282.690553 599.795894,282.227846 C599.517183,281.763601 599.503325,281.188676 599.757398,280.712133 L612.076124,257.653622 C612.611988,256.652883 614.258078,256.652883 614.793942,257.653622 L627.112667,280.712133 C627.366741,281.188676 627.352882,281.763601 627.074171,282.227846 C626.79546,282.690553 626.295012,282.973404 625.752988,282.973404 L620.620699,282.973404 L631.732189,303.770644 C631.986263,304.247186 631.972404,304.822112 631.693693,305.286356 C631.414982,305.749064 630.914534,306.031915 630.37251,306.031915 L625.240221,306.031915 L636.222365,326.589346 C636.434863,326.852213 636.564209,327.18733 636.564209,327.553191 C636.564209,328.401745 635.874361,329.090426 635.022829,329.090426 L635.022829,329.090426 Z" id="Fill-202-Copy" stroke="#FFFFFF" fill="#FFFFFF"></path>
            <path d="M690.426295,336.776596 C689.576303,336.776596 688.886454,336.087915 688.886454,335.239362 L688.886454,327.553191 C688.886454,326.704638 689.576303,326.015957 690.426295,326.015957 C691.277827,326.015957 691.966135,326.704638 691.966135,327.553191 L691.966135,335.239362 C691.966135,336.087915 691.277827,336.776596 690.426295,336.776596" id="Fill-203-Copy" stroke="#FFFFFF" fill="#FFFFFF"></path>
            <polyline id="Fill-204-Copy" stroke="#FFFFFF" points="690.426295 258.37766 705.824701 281.43617 699.665339 281.43617 713.523904 304.494681 707.364542 304.494681 721.223108 327.553191 659.629482 327.553191 673.488048 304.494681 667.328685 304.494681 681.187251 281.43617 675.027888 281.43617 690.426295 258.37766"></polyline>
            <path d="M662.35038,326.015957 L718.503749,326.015957 L706.044898,305.286356 C705.760028,304.811351 705.752329,304.219516 706.02488,303.736824 C706.298972,303.25567 706.810199,302.957447 707.364542,302.957447 L710.804546,302.957447 L698.345695,282.227846 C698.060825,281.75284 698.053125,281.161005 698.325677,280.678314 C698.599769,280.19716 699.110996,279.898936 699.665339,279.898936 L702.948279,279.898936 L690.426295,261.149293 L677.905851,279.898936 L681.187251,279.898936 C681.743133,279.898936 682.254361,280.19716 682.528452,280.678314 C682.801004,281.161005 682.793305,281.75284 682.508434,282.227846 L670.049584,302.957447 L673.488048,302.957447 C674.04393,302.957447 674.555157,303.25567 674.829249,303.736824 C675.101801,304.219516 675.094102,304.811351 674.809231,305.286356 L662.35038,326.015957 Z M721.255444,329.090426 L721.223108,329.090426 L659.629482,329.090426 C659.075139,329.090426 658.563912,328.792202 658.289821,328.311048 C658.017269,327.828356 658.024968,327.236521 658.309839,326.761516 L670.768689,306.031915 L667.328685,306.031915 C666.774343,306.031915 666.263116,305.733691 665.989024,305.252537 C665.716472,304.769846 665.724171,304.178011 666.009042,303.703005 L678.467892,282.973404 L675.027888,282.973404 C674.461227,282.973404 673.939221,282.661346 673.671289,282.161745 C673.403357,281.660606 673.432614,281.054936 673.746741,280.583005 L689.145147,257.524495 C689.717968,256.669793 691.136161,256.669793 691.708982,257.524495 L707.107388,280.583005 C707.421516,281.054936 707.450773,281.660606 707.182841,282.161745 C706.914908,282.661346 706.392902,282.973404 705.824701,282.973404 L702.386237,282.973404 L714.845088,303.703005 C715.129958,304.178011 715.137657,304.769846 714.865106,305.252537 C714.591014,305.733691 714.079787,306.031915 713.523904,306.031915 L710.08544,306.031915 L722.407245,326.532468 C722.64746,326.804559 722.795285,327.161197 722.795285,327.553191 C722.795285,328.401745 722.105436,329.090426 721.255444,329.090426 L721.255444,329.090426 Z" id="Fill-205-Copy" stroke="#FFFFFF" fill="#FFFFFF"></path>
            <polygon id="Fill-213" stroke="#979797" points="353.304781 335.239362 445.695219 335.239362 445.695219 221.484043 353.304781 221.484043"></polygon>
            <path d="M354.844622,333.702128 L444.155378,333.702128 L444.155378,223.021277 L354.844622,223.021277 L354.844622,333.702128 Z M445.695219,336.776596 L353.304781,336.776596 C352.454789,336.776596 351.76494,336.087915 351.76494,335.239362 L351.76494,221.484043 C351.76494,220.635489 352.454789,219.946809 353.304781,219.946809 L445.695219,219.946809 C446.546751,219.946809 447.23506,220.635489 447.23506,221.484043 L447.23506,335.239362 C447.23506,336.087915 446.546751,336.776596 445.695219,336.776596 L445.695219,336.776596 Z" id="Fill-214" stroke="#FFFFFF" fill="#FFFFFF"></path>
            <polygon id="Fill-215" stroke="#979797" points="348.685259 221.484043 450.314741 221.484043 450.314741 212.260638 348.685259 212.260638"></polygon>
            <path d="M350.2251,219.946809 L448.7749,219.946809 L448.7749,213.797872 L350.2251,213.797872 L350.2251,219.946809 Z M450.314741,223.021277 L348.685259,223.021277 C347.835267,223.021277 347.145418,222.332596 347.145418,221.484043 L347.145418,212.260638 C347.145418,211.412085 347.835267,210.723404 348.685259,210.723404 L450.314741,210.723404 C451.166273,210.723404 451.854582,211.412085 451.854582,212.260638 L451.854582,221.484043 C451.854582,222.332596 451.166273,223.021277 450.314741,223.021277 L450.314741,223.021277 Z" id="Fill-216" stroke="#FFFFFF" fill="#FFFFFF"></path>
            <polygon id="Fill-217" stroke="#979797" points="353.304781 212.260638 445.695219 212.260638 445.695219 203.037234 353.304781 203.037234"></polygon>
            <path d="M354.844622,210.723404 L444.155378,210.723404 L444.155378,204.574468 L354.844622,204.574468 L354.844622,210.723404 Z M445.695219,213.797872 L353.304781,213.797872 C352.454789,213.797872 351.76494,213.109191 351.76494,212.260638 L351.76494,203.037234 C351.76494,202.188681 352.454789,201.5 353.304781,201.5 L445.695219,201.5 C446.546751,201.5 447.23506,202.188681 447.23506,203.037234 L447.23506,212.260638 C447.23506,213.109191 446.546751,213.797872 445.695219,213.797872 L445.695219,213.797872 Z" id="Fill-218" stroke="#FFFFFF" fill="#FFFFFF"></path>
            <polygon id="Fill-219" stroke="#979797" points="362.543825 264.526596 381.021912 264.526596 381.021912 252.228723 362.543825 252.228723"></polygon>
            <path d="M364.083665,262.989362 L379.482072,262.989362 L379.482072,253.765957 L364.083665,253.765957 L364.083665,262.989362 Z M381.021912,266.06383 L362.543825,266.06383 C361.693833,266.06383 361.003984,265.375149 361.003984,264.526596 L361.003984,252.228723 C361.003984,251.38017 361.693833,250.691489 362.543825,250.691489 L381.021912,250.691489 C381.871904,250.691489 382.561753,251.38017 382.561753,252.228723 L382.561753,264.526596 C382.561753,265.375149 381.871904,266.06383 381.021912,266.06383 L381.021912,266.06383 Z" id="Fill-220" stroke="#FFFFFF" fill="#FFFFFF"></path>
            <path d="M371.782869,266.06383 C370.932876,266.06383 370.243028,265.375149 370.243028,264.526596 L370.243028,252.228723 C370.243028,251.38017 370.932876,250.691489 371.782869,250.691489 C372.632861,250.691489 373.322709,251.38017 373.322709,252.228723 L373.322709,264.526596 C373.322709,265.375149 372.632861,266.06383 371.782869,266.06383" id="Fill-221" stroke="#FFFFFF" fill="#FFFFFF"></path>
            <polygon id="Fill-222" stroke="#979797" points="417.978088 264.526596 436.456175 264.526596 436.456175 252.228723 417.978088 252.228723"></polygon>
            <path d="M419.517928,262.989362 L434.916335,262.989362 L434.916335,253.765957 L419.517928,253.765957 L419.517928,262.989362 Z M436.456175,266.06383 L417.978088,266.06383 C417.126556,266.06383 416.438247,265.375149 416.438247,264.526596 L416.438247,252.228723 C416.438247,251.38017 417.126556,250.691489 417.978088,250.691489 L436.456175,250.691489 C437.307707,250.691489 437.996016,251.38017 437.996016,252.228723 L437.996016,264.526596 C437.996016,265.375149 437.307707,266.06383 436.456175,266.06383 L436.456175,266.06383 Z" id="Fill-223" stroke="#FFFFFF" fill="#FFFFFF"></path>
            <path d="M427.217131,266.06383 C426.3656,266.06383 425.677291,265.375149 425.677291,264.526596 L425.677291,252.228723 C425.677291,251.38017 426.3656,250.691489 427.217131,250.691489 C428.068663,250.691489 428.756972,251.38017 428.756972,252.228723 L428.756972,264.526596 C428.756972,265.375149 428.068663,266.06383 427.217131,266.06383" id="Fill-224" stroke="#FFFFFF" fill="#FFFFFF"></path>
            <polygon id="Fill-225" stroke="#979797" points="362.543825 243.005319 381.021912 243.005319 381.021912 230.707447 362.543825 230.707447"></polygon>
            <path d="M364.083665,241.468085 L379.482072,241.468085 L379.482072,232.244681 L364.083665,232.244681 L364.083665,241.468085 Z M381.021912,244.542553 L362.543825,244.542553 C361.693833,244.542553 361.003984,243.853872 361.003984,243.005319 L361.003984,230.707447 C361.003984,229.858894 361.693833,229.170213 362.543825,229.170213 L381.021912,229.170213 C381.871904,229.170213 382.561753,229.858894 382.561753,230.707447 L382.561753,243.005319 C382.561753,243.853872 381.871904,244.542553 381.021912,244.542553 L381.021912,244.542553 Z" id="Fill-226" stroke="#FFFFFF" fill="#FFFFFF"></path>
            <path d="M371.782869,244.542553 C370.932876,244.542553 370.243028,243.853872 370.243028,243.005319 L370.243028,230.707447 C370.243028,229.858894 370.932876,229.170213 371.782869,229.170213 C372.632861,229.170213 373.322709,229.858894 373.322709,230.707447 L373.322709,243.005319 C373.322709,243.853872 372.632861,244.542553 371.782869,244.542553" id="Fill-227" stroke="#FFFFFF" fill="#FFFFFF"></path>
            <polygon id="Fill-228" stroke="#979797" points="417.978088 243.005319 436.456175 243.005319 436.456175 230.707447 417.978088 230.707447"></polygon>
            <path d="M419.517928,241.468085 L434.916335,241.468085 L434.916335,232.244681 L419.517928,232.244681 L419.517928,241.468085 Z M436.456175,244.542553 L417.978088,244.542553 C417.126556,244.542553 416.438247,243.853872 416.438247,243.005319 L416.438247,230.707447 C416.438247,229.858894 417.126556,229.170213 417.978088,229.170213 L436.456175,229.170213 C437.307707,229.170213 437.996016,229.858894 437.996016,230.707447 L437.996016,243.005319 C437.996016,243.853872 437.307707,244.542553 436.456175,244.542553 L436.456175,244.542553 Z" id="Fill-229" stroke="#FFFFFF" fill="#FFFFFF"></path>
            <path d="M427.217131,244.542553 C426.3656,244.542553 425.677291,243.853872 425.677291,243.005319 L425.677291,230.707447 C425.677291,229.858894 426.3656,229.170213 427.217131,229.170213 C428.068663,229.170213 428.756972,229.858894 428.756972,230.707447 L428.756972,243.005319 C428.756972,243.853872 428.068663,244.542553 427.217131,244.542553" id="Fill-230" stroke="#FFFFFF" fill="#FFFFFF"></path>
            <path d="M408.739044,247.617021 C408.739044,252.711415 404.603032,256.840426 399.5,256.840426 C394.396968,256.840426 390.260956,252.711415 390.260956,247.617021 C390.260956,242.522628 394.396968,238.393617 399.5,238.393617 C404.603032,238.393617 408.739044,242.522628 408.739044,247.617021" id="Fill-231" stroke="#979797"></path>
            <path d="M399.5,239.930851 C395.254659,239.930851 391.800797,243.378867 391.800797,247.617021 C391.800797,251.855176 395.254659,255.303191 399.5,255.303191 C403.745341,255.303191 407.199203,251.855176 407.199203,247.617021 C407.199203,243.378867 403.745341,239.930851 399.5,239.930851 Z M399.5,258.37766 C393.556215,258.37766 388.721116,253.550745 388.721116,247.617021 C388.721116,241.683298 393.556215,236.856383 399.5,236.856383 C405.442245,236.856383 410.278884,241.683298 410.278884,247.617021 C410.278884,253.550745 405.442245,258.37766 399.5,258.37766 L399.5,258.37766 Z" id="Fill-232" stroke="#FFFFFF" fill="#FFFFFF"></path>
            <path d="M404.119522,249.154255 L399.5,249.154255 C398.650008,249.154255 397.960159,248.465574 397.960159,247.617021 L397.960159,243.005319 C397.960159,242.156766 398.650008,241.468085 399.5,241.468085 C400.349992,241.468085 401.039841,242.156766 401.039841,243.005319 L401.039841,246.079787 L404.119522,246.079787 C404.971054,246.079787 405.659363,246.768468 405.659363,247.617021 C405.659363,248.465574 404.971054,249.154255 404.119522,249.154255" id="Fill-233" stroke="#FFFFFF" fill="#FFFFFF"></path>
            <polygon id="Fill-234" stroke="#979797" points="362.543825 289.12234 436.456175 289.12234 436.456175 273.75 362.543825 273.75"></polygon>
            <path d="M364.083665,287.585106 L434.916335,287.585106 L434.916335,275.287234 L364.083665,275.287234 L364.083665,287.585106 Z M436.456175,290.659574 L362.543825,290.659574 C361.693833,290.659574 361.003984,289.970894 361.003984,289.12234 L361.003984,273.75 C361.003984,272.901447 361.693833,272.212766 362.543825,272.212766 L436.456175,272.212766 C437.307707,272.212766 437.996016,272.901447 437.996016,273.75 L437.996016,289.12234 C437.996016,289.970894 437.307707,290.659574 436.456175,290.659574 L436.456175,290.659574 Z" id="Fill-235" stroke="#FFFFFF" fill="#FFFFFF"></path>
            <path d="M375.801853,282.974941 C375.801853,283.440723 375.681745,283.858851 375.44153,284.229324 C375.201315,284.602872 374.850231,284.89341 374.386739,285.104011 C373.924787,285.313074 373.373524,285.419144 372.73911,285.419144 C371.978428,285.419144 371.350173,285.274644 370.854345,284.987181 C370.504801,284.781191 370.21839,284.504489 369.999733,284.158612 C369.779536,283.814271 369.671747,283.479154 369.671747,283.153261 C369.671747,282.964181 369.73642,282.802771 369.868847,282.667495 C369.999733,282.532218 370.167576,282.46458 370.370835,282.46458 C370.535598,282.46458 370.674183,282.518383 370.788131,282.622915 C370.90362,282.728984 371.000629,282.882707 371.082241,283.090234 C371.179251,283.334654 371.2855,283.540644 371.399448,283.705128 C371.513396,283.869612 371.67508,284.006426 371.881418,284.112495 C372.087757,284.220101 372.360309,284.272367 372.697534,284.272367 C373.161026,284.272367 373.536747,284.164761 373.826237,283.949548 C374.115727,283.734335 374.260472,283.465319 374.260472,283.1425 C374.260472,282.887319 374.18348,282.679793 374.026416,282.51992 C373.869353,282.361585 373.669173,282.238606 373.419719,282.155596 C373.173345,282.071048 372.842279,281.980351 372.429602,281.888117 C371.875259,281.757452 371.410227,281.605266 371.037586,281.433096 C370.661865,281.259388 370.366215,281.022654 370.147558,280.722894 C369.927361,280.42467 369.819572,280.05266 369.819572,279.606862 C369.819572,279.182585 369.93352,278.805963 370.164496,278.476995 C370.397012,278.148027 370.731157,277.894383 371.171552,277.717601 C371.610406,277.540819 372.126253,277.453197 372.717552,277.453197 C373.191823,277.453197 373.60142,277.511612 373.946345,277.628441 C374.292809,277.746809 374.579219,277.902069 374.808655,278.095761 C375.035012,278.290989 375.202855,278.495441 375.307564,278.709117 C375.412273,278.921255 375.466167,279.130319 375.466167,279.333234 C375.466167,279.519239 375.399954,279.686798 375.269068,279.83591 C375.136641,279.985021 374.971878,280.058809 374.774779,280.058809 C374.597697,280.058809 374.460651,280.014229 374.368261,279.925069 C374.274331,279.83591 374.174241,279.688335 374.064912,279.48542 C373.926327,279.194883 373.756944,278.96891 373.559845,278.805963 C373.362745,278.643016 373.047078,278.561543 372.612843,278.561543 C372.209404,278.561543 371.882958,278.650702 371.636584,278.827484 C371.388669,279.004266 371.265482,279.216404 371.265482,279.465436 C371.265482,279.61916 371.307058,279.751362 371.391749,279.865117 C371.47644,279.977335 371.591928,280.072644 371.739753,280.15258 C371.886038,280.234053 372.035402,280.29708 372.186307,280.34166 C372.337211,280.387777 372.585125,280.453878 372.934669,280.543037 C373.368904,280.642957 373.763104,280.756713 374.115727,280.879691 C374.468351,281.001133 374.76708,281.148707 375.016534,281.325489 C375.262908,281.500734 375.456928,281.722096 375.595514,281.989574 C375.73256,282.257053 375.801853,282.586021 375.801853,282.974941" id="Fill-236" stroke="#FFFFFF" fill="#FFFFFF"></path>
            <path d="M386.395956,282.855037 C386.395956,283.099457 386.335902,283.365399 386.215795,283.649787 C386.094147,283.935713 385.904747,284.217027 385.644514,284.490654 C385.384281,284.765819 385.053215,284.990255 384.648237,285.160888 C384.246339,285.331521 383.776687,285.419144 383.237743,285.419144 C382.832765,285.419144 382.463203,285.379176 382.129058,285.302314 C381.794912,285.225452 381.493104,285.105548 381.220552,284.942601 C380.948,284.779654 380.698546,284.564441 380.472189,284.2985 C380.26739,284.057154 380.093388,283.786601 379.950183,283.48684 C379.805438,283.188617 379.699189,282.868872 379.626817,282.527606 C379.554444,282.187878 379.517488,281.828165 379.517488,281.446931 C379.517488,280.825888 379.608339,280.270947 379.7885,279.780569 C379.968661,279.290191 380.227355,278.870527 380.56458,278.521574 C380.901805,278.17416 381.297544,277.908218 381.750257,277.726824 C382.20297,277.543894 382.68494,277.453197 383.196167,277.453197 C383.821343,277.453197 384.378765,277.576176 384.865355,277.825207 C385.353484,278.074239 385.727665,278.381686 385.987898,278.747548 C386.246592,279.11341 386.375938,279.459287 386.375938,279.786718 C386.375938,279.9635 386.312805,280.123372 386.186538,280.257112 C386.058731,280.395463 385.907827,280.463101 385.729205,280.463101 C385.529026,280.463101 385.378122,280.416984 385.279572,280.320138 C385.177942,280.227904 385.067074,280.06342 384.943886,279.832835 C384.740627,279.451601 384.501952,279.164138 384.226321,278.975059 C383.950689,278.785979 383.611924,278.693745 383.208486,278.693745 C382.564833,278.693745 382.053606,278.936628 381.673265,279.422394 C381.292924,279.909697 381.103524,280.601452 381.103524,281.49766 C381.103524,282.098718 381.186675,282.595245 381.356058,282.993388 C381.5239,283.389995 381.761036,283.688218 382.072084,283.884984 C382.380052,284.080213 382.740375,284.178596 383.154592,284.178596 C383.604225,284.178596 383.984566,284.066378 384.294074,283.843479 C384.605122,283.622117 384.839177,283.296223 384.997781,282.864261 C385.063994,282.661346 385.147145,282.495324 385.244155,282.367734 C385.342705,282.240144 385.499769,282.17558 385.718426,282.17558 C385.904747,282.17558 386.063351,282.240144 386.197317,282.370809 C386.329743,282.499936 386.395956,282.661346 386.395956,282.855037" id="Fill-237" stroke="#FFFFFF" fill="#FFFFFF"></path>
            <path d="M392.071809,278.398596 L392.071809,280.606064 L395.44406,280.606064 L395.44406,278.398596 C395.44406,278.083463 395.514892,277.846729 395.658098,277.689931 C395.799763,277.531596 395.987624,277.453197 396.2186,277.453197 C396.452655,277.453197 396.643596,277.530059 396.788341,277.686856 C396.934625,277.842117 397.006998,278.078851 397.006998,278.398596 L397.006998,284.467596 C397.006998,284.785803 396.934625,285.024074 396.786801,285.18241 C396.640516,285.339207 396.451116,285.419144 396.2186,285.419144 C395.983004,285.419144 395.795143,285.33767 395.655018,285.179335 C395.514892,285.019463 395.44406,284.782729 395.44406,284.467596 L395.44406,281.875819 L392.071809,281.875819 L392.071809,284.467596 C392.071809,284.785803 391.996357,285.024074 391.848532,285.18241 C391.702247,285.339207 391.512847,285.419144 391.280331,285.419144 C391.046275,285.419144 390.858414,285.33767 390.718289,285.179335 C390.578163,285.019463 390.507331,284.782729 390.507331,284.467596 L390.507331,278.398596 C390.507331,278.083463 390.576624,277.846729 390.715209,277.689931 C390.853795,277.531596 391.043195,277.453197 391.280331,277.453197 C391.515926,277.453197 391.705327,277.530059 391.851612,277.686856 C391.997896,277.842117 392.071809,278.078851 392.071809,278.398596" id="Fill-238" stroke="#FFFFFF" fill="#FFFFFF"></path>
            <path d="M406.997484,281.413112 C406.997484,280.850484 406.906633,280.361644 406.723392,279.948128 C406.540151,279.536149 406.279918,279.222553 405.942693,279.010415 C405.603928,278.798277 405.214349,278.693745 404.775494,278.693745 C404.464446,278.693745 404.174956,278.75216 403.910104,278.868989 C403.645251,278.985819 403.417355,279.157989 403.226414,279.380888 C403.035474,279.605324 402.88303,279.89125 402.773701,280.240202 C402.662833,280.587617 402.607398,280.979612 402.607398,281.413112 C402.607398,281.852761 402.662833,282.24783 402.773701,282.602931 C402.88303,282.954957 403.040094,283.250106 403.241813,283.482229 C403.443532,283.714351 403.674508,283.889596 403.936281,284.004888 C404.198054,284.120181 404.484464,284.178596 404.795512,284.178596 C405.195871,284.178596 405.563892,284.078676 405.899578,283.878835 C406.235263,283.678995 406.501655,283.371548 406.700295,282.95342 C406.898934,282.53683 406.997484,282.023394 406.997484,281.413112 Z M404.775494,277.453197 C405.574671,277.453197 406.26298,277.614606 406.837341,277.938963 C407.410161,278.263319 407.844396,278.722952 408.138506,279.320936 C408.434155,279.91892 408.58044,280.619899 408.58044,281.42541 C408.58044,282.020319 408.500369,282.561426 408.338685,283.048729 C408.178542,283.534495 407.936787,283.957234 407.61342,284.313872 C407.290054,284.670511 406.894315,284.944138 406.423124,285.133218 C405.951932,285.322298 405.414528,285.419144 404.807831,285.419144 C404.204213,285.419144 403.663729,285.320761 403.187918,285.125532 C402.709028,284.93184 402.310209,284.658213 401.991462,284.304649 C401.672715,283.951085 401.43096,283.523734 401.267737,283.027207 C401.104514,282.530681 401.022902,281.992649 401.022902,281.413112 C401.022902,280.822814 401.109133,280.278633 401.278516,279.786718 C401.449438,279.290191 401.695813,278.870527 402.017639,278.524649 C402.341006,278.177234 402.733665,277.91283 403.195618,277.728362 C403.65911,277.545431 404.185735,277.453197 404.775494,277.453197 L404.775494,277.453197 Z" id="Fill-239" stroke="#FFFFFF" fill="#FFFFFF"></path>
            <path d="M418.227542,281.413112 C418.227542,280.850484 418.138231,280.361644 417.95345,279.948128 C417.771749,279.536149 417.511516,279.222553 417.174291,279.010415 C416.835526,278.798277 416.445946,278.693745 416.008631,278.693745 C415.696044,278.693745 415.406554,278.75216 415.141701,278.868989 C414.876849,278.985819 414.648952,279.157989 414.458012,279.380888 C414.267072,279.605324 414.114627,279.89125 414.005299,280.240202 C413.89443,280.587617 413.840536,280.979612 413.840536,281.413112 C413.840536,281.852761 413.89443,282.24783 414.005299,282.602931 C414.114627,282.954957 414.271691,283.250106 414.47341,283.482229 C414.67359,283.714351 414.906106,283.889596 415.167878,284.004888 C415.429651,284.120181 415.716062,284.178596 416.028649,284.178596 C416.429008,284.178596 416.79549,284.078676 417.131175,283.878835 C417.466861,283.678995 417.733253,283.371548 417.931892,282.95342 C418.130532,282.53683 418.227542,282.023394 418.227542,281.413112 Z M416.008631,277.453197 C416.807809,277.453197 417.494578,277.614606 418.068938,277.938963 C418.641759,278.263319 419.075994,278.722952 419.370104,279.320936 C419.665753,279.91892 419.812038,280.619899 419.812038,281.42541 C419.812038,282.020319 419.731966,282.561426 419.570283,283.048729 C419.410139,283.534495 419.166845,283.957234 418.845018,284.313872 C418.521651,284.670511 418.125912,284.944138 417.654721,285.133218 C417.18353,285.322298 416.646125,285.419144 416.037888,285.419144 C415.435811,285.419144 414.895327,285.320761 414.417976,285.125532 C413.940625,284.93184 413.541807,284.658213 413.22306,284.304649 C412.904313,283.951085 412.662558,283.523734 412.499335,283.027207 C412.336112,282.530681 412.2545,281.992649 412.2545,281.413112 C412.2545,280.822814 412.340731,280.278633 412.510114,279.786718 C412.681036,279.290191 412.92741,278.870527 413.250777,278.524649 C413.572604,278.177234 413.966803,277.91283 414.428755,277.728362 C414.892247,277.545431 415.418873,277.453197 416.008631,277.453197 L416.008631,277.453197 Z" id="Fill-240" stroke="#FFFFFF" fill="#FFFFFF"></path>
            <path d="M425.377022,278.398596 L425.377022,284.004888 L428.542934,284.004888 C428.795468,284.004888 428.989488,284.066378 429.124994,284.187819 C429.2605,284.310798 429.328253,284.466059 429.328253,284.650527 C429.328253,284.839606 429.26204,284.99333 429.128074,285.111697 C428.994108,285.228527 428.800088,285.286941 428.542934,285.286941 L424.770325,285.286941 C424.43002,285.286941 424.185185,285.211617 424.037361,285.060968 C423.887996,284.910319 423.812544,284.667436 423.812544,284.330782 L423.812544,278.398596 C423.812544,278.083463 423.883376,277.846729 424.026582,277.689931 C424.168247,277.531596 424.354568,277.453197 424.585544,277.453197 C424.821139,277.453197 425.01054,277.530059 425.156825,277.686856 C425.30311,277.842117 425.377022,278.078851 425.377022,278.398596" id="Fill-241" stroke="#FFFFFF" fill="#FFFFFF"></path>
            <polygon id="Fill-242" stroke="#979797" points="385.641434 335.239362 399.5 335.239362 399.5 304.494681 385.641434 304.494681"></polygon>
            <path d="M387.181275,333.702128 L397.960159,333.702128 L397.960159,306.031915 L387.181275,306.031915 L387.181275,333.702128 Z M399.5,336.776596 L385.641434,336.776596 C384.791442,336.776596 384.101594,336.087915 384.101594,335.239362 L384.101594,304.494681 C384.101594,303.646128 384.791442,302.957447 385.641434,302.957447 L399.5,302.957447 C400.349992,302.957447 401.039841,303.646128 401.039841,304.494681 L401.039841,335.239362 C401.039841,336.087915 400.349992,336.776596 399.5,336.776596 L399.5,336.776596 Z" id="Fill-243" stroke="#FFFFFF" fill="#FFFFFF"></path>
            <polygon id="Fill-244" stroke="#979797" points="371.782869 335.239362 385.641434 335.239362 385.641434 304.494681 371.782869 304.494681"></polygon>
            <path d="M373.322709,333.702128 L384.101594,333.702128 L384.101594,306.031915 L373.322709,306.031915 L373.322709,333.702128 Z M385.641434,336.776596 L371.782869,336.776596 C370.932876,336.776596 370.243028,336.087915 370.243028,335.239362 L370.243028,304.494681 C370.243028,303.646128 370.932876,302.957447 371.782869,302.957447 L385.641434,302.957447 C386.491426,302.957447 387.181275,303.646128 387.181275,304.494681 L387.181275,335.239362 C387.181275,336.087915 386.491426,336.776596 385.641434,336.776596 L385.641434,336.776596 Z" id="Fill-245" stroke="#FFFFFF" fill="#FFFFFF"></path>
            <polygon id="Fill-246" stroke="#979797" points="399.5 335.239362 413.358566 335.239362 413.358566 304.494681 399.5 304.494681"></polygon>
            <path d="M401.039841,333.702128 L411.818725,333.702128 L411.818725,306.031915 L401.039841,306.031915 L401.039841,333.702128 Z M413.358566,336.776596 L399.5,336.776596 C398.650008,336.776596 397.960159,336.087915 397.960159,335.239362 L397.960159,304.494681 C397.960159,303.646128 398.650008,302.957447 399.5,302.957447 L413.358566,302.957447 C414.210098,302.957447 414.898406,303.646128 414.898406,304.494681 L414.898406,335.239362 C414.898406,336.087915 414.210098,336.776596 413.358566,336.776596 L413.358566,336.776596 Z" id="Fill-247" stroke="#FFFFFF" fill="#FFFFFF"></path>
            <polygon id="Fill-248" stroke="#979797" points="413.358566 335.239362 427.217131 335.239362 427.217131 304.494681 413.358566 304.494681"></polygon>
            <path d="M414.898406,333.702128 L425.677291,333.702128 L425.677291,306.031915 L414.898406,306.031915 L414.898406,333.702128 Z M427.217131,336.776596 L413.358566,336.776596 C412.507034,336.776596 411.818725,336.087915 411.818725,335.239362 L411.818725,304.494681 C411.818725,303.646128 412.507034,302.957447 413.358566,302.957447 L427.217131,302.957447 C428.068663,302.957447 428.756972,303.646128 428.756972,304.494681 L428.756972,335.239362 C428.756972,336.087915 428.068663,336.776596 427.217131,336.776596 L427.217131,336.776596 Z" id="Fill-249" stroke="#FFFFFF" fill="#FFFFFF"></path>
            <polygon id="Fill-250" stroke="#979797" points="362.543825 304.494681 436.456175 304.494681 436.456175 298.345745 362.543825 298.345745"></polygon>
            <path d="M364.083665,302.957447 L434.916335,302.957447 L434.916335,299.882979 L364.083665,299.882979 L364.083665,302.957447 Z M436.456175,306.031915 L362.543825,306.031915 C361.693833,306.031915 361.003984,305.343234 361.003984,304.494681 L361.003984,298.345745 C361.003984,297.497191 361.693833,296.808511 362.543825,296.808511 L436.456175,296.808511 C437.307707,296.808511 437.996016,297.497191 437.996016,298.345745 L437.996016,304.494681 C437.996016,305.343234 437.307707,306.031915 436.456175,306.031915 L436.456175,306.031915 Z" id="Fill-251" stroke="#FFFFFF" fill="#FFFFFF"></path>
            <path d="M417.978088,327.553191 C417.126556,327.553191 416.438247,326.864511 416.438247,326.015957 L416.438247,319.867021 C416.438247,319.018468 417.126556,318.329787 417.978088,318.329787 C418.82962,318.329787 419.517928,319.018468 419.517928,319.867021 L419.517928,326.015957 C419.517928,326.864511 418.82962,327.553191 417.978088,327.553191" id="Fill-252" stroke="#FFFFFF" fill="#FFFFFF"></path>
            <path d="M408.739044,327.553191 C407.887512,327.553191 407.199203,326.864511 407.199203,326.015957 L407.199203,319.867021 C407.199203,319.018468 407.887512,318.329787 408.739044,318.329787 C409.590576,318.329787 410.278884,319.018468 410.278884,319.867021 L410.278884,326.015957 C410.278884,326.864511 409.590576,327.553191 408.739044,327.553191" id="Fill-253" stroke="#FFFFFF" fill="#FFFFFF"></path>
            <path d="M390.260956,327.553191 C389.410964,327.553191 388.721116,326.864511 388.721116,326.015957 L388.721116,319.867021 C388.721116,319.018468 389.410964,318.329787 390.260956,318.329787 C391.110948,318.329787 391.800797,319.018468 391.800797,319.867021 L391.800797,326.015957 C391.800797,326.864511 391.110948,327.553191 390.260956,327.553191" id="Fill-254" stroke="#FFFFFF" fill="#FFFFFF"></path>
            <path d="M381.021912,327.553191 C380.17192,327.553191 379.482072,326.864511 379.482072,326.015957 L379.482072,319.867021 C379.482072,319.018468 380.17192,318.329787 381.021912,318.329787 C381.871904,318.329787 382.561753,319.018468 382.561753,319.867021 L382.561753,326.015957 C382.561753,326.864511 381.871904,327.553191 381.021912,327.553191" id="Fill-255" stroke="#FFFFFF" fill="#FFFFFF"></path>
            <path d="M399.5,195.351064 C398.650008,195.351064 397.960159,194.662383 397.960159,193.81383 L397.960159,175.367021 C397.960159,174.518468 398.650008,173.829787 399.5,173.829787 C400.349992,173.829787 401.039841,174.518468 401.039841,175.367021 L401.039841,193.81383 C401.039841,194.662383 400.349992,195.351064 399.5,195.351064" id="Fill-256" stroke="#FFFFFF" fill="#FFFFFF"></path>
            <polygon id="Fill-257" stroke="#979797" points="396.420319 203.037234 402.579681 203.037234 402.579681 193.81383 396.420319 193.81383"></polygon>
            <path d="M397.960159,201.5 L401.039841,201.5 L401.039841,195.351064 L397.960159,195.351064 L397.960159,201.5 Z M402.579681,204.574468 L396.420319,204.574468 C395.570327,204.574468 394.880478,203.885787 394.880478,203.037234 L394.880478,193.81383 C394.880478,192.965277 395.570327,192.276596 396.420319,192.276596 L402.579681,192.276596 C403.431213,192.276596 404.119522,192.965277 404.119522,193.81383 L404.119522,203.037234 C404.119522,203.885787 403.431213,204.574468 402.579681,204.574468 L402.579681,204.574468 Z" id="Fill-258" stroke="#FFFFFF" fill="#FFFFFF"></path>
            <polygon id="Fill-259" stroke="#979797" points="399.5 175.367021 417.978088 175.367021 417.978088 163.069149 399.5 163.069149"></polygon>
            <path d="M401.039841,173.829787 L416.438247,173.829787 L416.438247,164.606383 L401.039841,164.606383 L401.039841,173.829787 Z M417.978088,176.904255 L399.5,176.904255 C398.650008,176.904255 397.960159,176.215574 397.960159,175.367021 L397.960159,163.069149 C397.960159,162.220596 398.650008,161.531915 399.5,161.531915 L417.978088,161.531915 C418.82962,161.531915 419.517928,162.220596 419.517928,163.069149 L419.517928,175.367021 C419.517928,176.215574 418.82962,176.904255 417.978088,176.904255 L417.978088,176.904255 Z" id="Fill-260" stroke="#FFFFFF" fill="#FFFFFF"></path>
            <polygon id="Fill-261" stroke="#FFFFFF" points="445.695219 335.239362 565.802789 335.239362 565.802789 252.228723 445.695219 252.228723"></polygon>
            <path d="M447.23506,333.702128 L564.262948,333.702128 L564.262948,253.765957 L447.23506,253.765957 L447.23506,333.702128 Z M565.802789,336.776596 L445.695219,336.776596 C444.843687,336.776596 444.155378,336.087915 444.155378,335.239362 L444.155378,252.228723 C444.155378,251.38017 444.843687,250.691489 445.695219,250.691489 L565.802789,250.691489 C566.654321,250.691489 567.342629,251.38017 567.342629,252.228723 L567.342629,335.239362 C567.342629,336.087915 566.654321,336.776596 565.802789,336.776596 L565.802789,336.776596 Z" id="Fill-262" stroke="#FFFFFF" fill="#FFFFFF"></path>
            <polygon id="Fill-263" stroke="#FFFFFF" points="445.695219 252.228723 570.422311 252.228723 570.422311 243.005319 445.695219 243.005319"></polygon>
            <path d="M447.23506,250.691489 L568.88247,250.691489 L568.88247,244.542553 L447.23506,244.542553 L447.23506,250.691489 Z M570.422311,253.765957 L445.695219,253.765957 C444.843687,253.765957 444.155378,253.077277 444.155378,252.228723 L444.155378,243.005319 C444.155378,242.156766 444.843687,241.468085 445.695219,241.468085 L570.422311,241.468085 C571.273843,241.468085 571.962151,242.156766 571.962151,243.005319 L571.962151,252.228723 C571.962151,253.077277 571.273843,253.765957 570.422311,253.765957 L570.422311,253.765957 Z" id="Fill-264" stroke="#FFFFFF" fill="#FFFFFF"></path>
            <polygon id="Fill-265" stroke="#979797" points="445.695219 243.005319 565.802789 243.005319 565.802789 233.781915 445.695219 233.781915"></polygon>
            <path d="M447.23506,241.468085 L564.262948,241.468085 L564.262948,235.319149 L447.23506,235.319149 L447.23506,241.468085 Z M565.802789,244.542553 L445.695219,244.542553 C444.843687,244.542553 444.155378,243.853872 444.155378,243.005319 L444.155378,233.781915 C444.155378,232.933362 444.843687,232.244681 445.695219,232.244681 L565.802789,232.244681 C566.654321,232.244681 567.342629,232.933362 567.342629,233.781915 L567.342629,243.005319 C567.342629,243.853872 566.654321,244.542553 565.802789,244.542553 L565.802789,244.542553 Z" id="Fill-266" stroke="#FFFFFF" fill="#FFFFFF"></path>
            <polygon id="Fill-267" stroke="#979797" points="482.651394 289.12234 501.129482 289.12234 501.129482 267.601064 482.651394 267.601064"></polygon>
            <path d="M484.191235,287.585106 L499.589641,287.585106 L499.589641,269.138298 L484.191235,269.138298 L484.191235,287.585106 Z M501.129482,290.659574 L482.651394,290.659574 C481.799863,290.659574 481.111554,289.970894 481.111554,289.12234 L481.111554,267.601064 C481.111554,266.752511 481.799863,266.06383 482.651394,266.06383 L501.129482,266.06383 C501.981014,266.06383 502.669323,266.752511 502.669323,267.601064 L502.669323,289.12234 C502.669323,289.970894 501.981014,290.659574 501.129482,290.659574 L501.129482,290.659574 Z" id="Fill-268" stroke="#FFFFFF" fill="#FFFFFF"></path>
            <path d="M501.129482,276.824468 L482.651394,276.824468 C481.799863,276.824468 481.111554,276.135787 481.111554,275.287234 C481.111554,274.438681 481.799863,273.75 482.651394,273.75 L501.129482,273.75 C501.981014,273.75 502.669323,274.438681 502.669323,275.287234 C502.669323,276.135787 501.981014,276.824468 501.129482,276.824468" id="Fill-269" stroke="#FFFFFF" fill="#FFFFFF"></path>
            <polygon id="Fill-270" stroke="#979797" points="538.085657 289.12234 556.563745 289.12234 556.563745 267.601064 538.085657 267.601064"></polygon>
            <path d="M539.625498,287.585106 L555.023904,287.585106 L555.023904,269.138298 L539.625498,269.138298 L539.625498,287.585106 Z M556.563745,290.659574 L538.085657,290.659574 C537.234125,290.659574 536.545817,289.970894 536.545817,289.12234 L536.545817,267.601064 C536.545817,266.752511 537.234125,266.06383 538.085657,266.06383 L556.563745,266.06383 C557.415277,266.06383 558.103586,266.752511 558.103586,267.601064 L558.103586,289.12234 C558.103586,289.970894 557.415277,290.659574 556.563745,290.659574 L556.563745,290.659574 Z" id="Fill-271" stroke="#FFFFFF" fill="#FFFFFF"></path>
            <path d="M556.563745,276.824468 L538.085657,276.824468 C537.234125,276.824468 536.545817,276.135787 536.545817,275.287234 C536.545817,274.438681 537.234125,273.75 538.085657,273.75 L556.563745,273.75 C557.415277,273.75 558.103586,274.438681 558.103586,275.287234 C558.103586,276.135787 557.415277,276.824468 556.563745,276.824468" id="Fill-272" stroke="#FFFFFF" fill="#FFFFFF"></path>
            <polygon id="Fill-273" stroke="#979797" points="482.651394 319.867021 501.129482 319.867021 501.129482 298.345745 482.651394 298.345745"></polygon>
            <path d="M484.191235,318.329787 L499.589641,318.329787 L499.589641,299.882979 L484.191235,299.882979 L484.191235,318.329787 Z M501.129482,321.404255 L482.651394,321.404255 C481.799863,321.404255 481.111554,320.715574 481.111554,319.867021 L481.111554,298.345745 C481.111554,297.497191 481.799863,296.808511 482.651394,296.808511 L501.129482,296.808511 C501.981014,296.808511 502.669323,297.497191 502.669323,298.345745 L502.669323,319.867021 C502.669323,320.715574 501.981014,321.404255 501.129482,321.404255 L501.129482,321.404255 Z" id="Fill-274" stroke="#FFFFFF" fill="#FFFFFF"></path>
            <path d="M501.129482,307.569149 L482.651394,307.569149 C481.799863,307.569149 481.111554,306.880468 481.111554,306.031915 C481.111554,305.183362 481.799863,304.494681 482.651394,304.494681 L501.129482,304.494681 C501.981014,304.494681 502.669323,305.183362 502.669323,306.031915 C502.669323,306.880468 501.981014,307.569149 501.129482,307.569149" id="Fill-275" stroke="#FFFFFF" fill="#FFFFFF"></path>
            <polygon id="Fill-276" stroke="#FFFFFF" points="538.085657 319.867021 556.563745 319.867021 556.563745 298.345745 538.085657 298.345745"></polygon>
            <path d="M539.625498,318.329787 L555.023904,318.329787 L555.023904,299.882979 L539.625498,299.882979 L539.625498,318.329787 Z M556.563745,321.404255 L538.085657,321.404255 C537.234125,321.404255 536.545817,320.715574 536.545817,319.867021 L536.545817,298.345745 C536.545817,297.497191 537.234125,296.808511 538.085657,296.808511 L556.563745,296.808511 C557.415277,296.808511 558.103586,297.497191 558.103586,298.345745 L558.103586,319.867021 C558.103586,320.715574 557.415277,321.404255 556.563745,321.404255 L556.563745,321.404255 Z" id="Fill-277" stroke="#FFFFFF" fill="#FFFFFF"></path>
            <path d="M556.563745,307.569149 L538.085657,307.569149 C537.234125,307.569149 536.545817,306.880468 536.545817,306.031915 C536.545817,305.183362 537.234125,304.494681 538.085657,304.494681 L556.563745,304.494681 C557.415277,304.494681 558.103586,305.183362 558.103586,306.031915 C558.103586,306.880468 557.415277,307.569149 556.563745,307.569149" id="Fill-278" stroke="#FFFFFF" fill="#FFFFFF"></path>
            <polygon id="Fill-279" stroke="#979797" points="510.368526 289.12234 528.846614 289.12234 528.846614 267.601064 510.368526 267.601064"></polygon>
            <path d="M511.908367,287.585106 L527.306773,287.585106 L527.306773,269.138298 L511.908367,269.138298 L511.908367,287.585106 Z M528.846614,290.659574 L510.368526,290.659574 C509.516994,290.659574 508.828685,289.970894 508.828685,289.12234 L508.828685,267.601064 C508.828685,266.752511 509.516994,266.06383 510.368526,266.06383 L528.846614,266.06383 C529.698145,266.06383 530.386454,266.752511 530.386454,267.601064 L530.386454,289.12234 C530.386454,289.970894 529.698145,290.659574 528.846614,290.659574 L528.846614,290.659574 Z" id="Fill-280" stroke="#FFFFFF" fill="#FFFFFF"></path>
            <path d="M528.846614,276.824468 L510.368526,276.824468 C509.516994,276.824468 508.828685,276.135787 508.828685,275.287234 C508.828685,274.438681 509.516994,273.75 510.368526,273.75 L528.846614,273.75 C529.698145,273.75 530.386454,274.438681 530.386454,275.287234 C530.386454,276.135787 529.698145,276.824468 528.846614,276.824468" id="Fill-281" stroke="#FFFFFF" fill="#FFFFFF"></path>
            <polygon id="Fill-282" stroke="#979797" points="510.368526 319.867021 528.846614 319.867021 528.846614 298.345745 510.368526 298.345745"></polygon>
            <path d="M511.908367,318.329787 L527.306773,318.329787 L527.306773,299.882979 L511.908367,299.882979 L511.908367,318.329787 Z M528.846614,321.404255 L510.368526,321.404255 C509.516994,321.404255 508.828685,320.715574 508.828685,319.867021 L508.828685,298.345745 C508.828685,297.497191 509.516994,296.808511 510.368526,296.808511 L528.846614,296.808511 C529.698145,296.808511 530.386454,297.497191 530.386454,298.345745 L530.386454,319.867021 C530.386454,320.715574 529.698145,321.404255 528.846614,321.404255 L528.846614,321.404255 Z" id="Fill-283" stroke="#FFFFFF" fill="#FFFFFF"></path>
            <path d="M528.846614,307.569149 L510.368526,307.569149 C509.516994,307.569149 508.828685,306.880468 508.828685,306.031915 C508.828685,305.183362 509.516994,304.494681 510.368526,304.494681 L528.846614,304.494681 C529.698145,304.494681 530.386454,305.183362 530.386454,306.031915 C530.386454,306.880468 529.698145,307.569149 528.846614,307.569149" id="Fill-284" stroke="#FFFFFF" fill="#FFFFFF"></path>
            <polygon id="Fill-285" stroke="#979797" points="454.934263 289.12234 473.412351 289.12234 473.412351 267.601064 454.934263 267.601064"></polygon>
            <path d="M456.474104,287.585106 L471.87251,287.585106 L471.87251,269.138298 L456.474104,269.138298 L456.474104,287.585106 Z M473.412351,290.659574 L454.934263,290.659574 C454.082731,290.659574 453.394422,289.970894 453.394422,289.12234 L453.394422,267.601064 C453.394422,266.752511 454.082731,266.06383 454.934263,266.06383 L473.412351,266.06383 C474.263882,266.06383 474.952191,266.752511 474.952191,267.601064 L474.952191,289.12234 C474.952191,289.970894 474.263882,290.659574 473.412351,290.659574 L473.412351,290.659574 Z" id="Fill-286" stroke="#FFFFFF" fill="#FFFFFF"></path>
            <path d="M473.412351,276.824468 L454.934263,276.824468 C454.082731,276.824468 453.394422,276.135787 453.394422,275.287234 C453.394422,274.438681 454.082731,273.75 454.934263,273.75 L473.412351,273.75 C474.263882,273.75 474.952191,274.438681 474.952191,275.287234 C474.952191,276.135787 474.263882,276.824468 473.412351,276.824468" id="Fill-287" stroke="#FFFFFF" fill="#FFFFFF"></path>
            <polygon id="Fill-288" stroke="#979797" points="454.934263 319.867021 473.412351 319.867021 473.412351 298.345745 454.934263 298.345745"></polygon>
            <path d="M456.474104,318.329787 L471.87251,318.329787 L471.87251,299.882979 L456.474104,299.882979 L456.474104,318.329787 Z M473.412351,321.404255 L454.934263,321.404255 C454.082731,321.404255 453.394422,320.715574 453.394422,319.867021 L453.394422,298.345745 C453.394422,297.497191 454.082731,296.808511 454.934263,296.808511 L473.412351,296.808511 C474.263882,296.808511 474.952191,297.497191 474.952191,298.345745 L474.952191,319.867021 C474.952191,320.715574 474.263882,321.404255 473.412351,321.404255 L473.412351,321.404255 Z" id="Fill-289" stroke="#FFFFFF" fill="#FFFFFF"></path>
            <path d="M473.412351,307.569149 L454.934263,307.569149 C454.082731,307.569149 453.394422,306.880468 453.394422,306.031915 C453.394422,305.183362 454.082731,304.494681 454.934263,304.494681 L473.412351,304.494681 C474.263882,304.494681 474.952191,305.183362 474.952191,306.031915 C474.952191,306.880468 474.263882,307.569149 473.412351,307.569149" id="Fill-290" stroke="#FFFFFF" fill="#FFFFFF"></path>
            <path d="M473.412351,259.914894 L445.695219,259.914894 C444.843687,259.914894 444.155378,259.226213 444.155378,258.37766 C444.155378,257.529106 444.843687,256.840426 445.695219,256.840426 L473.412351,256.840426 C474.263882,256.840426 474.952191,257.529106 474.952191,258.37766 C474.952191,259.226213 474.263882,259.914894 473.412351,259.914894" id="Fill-291" stroke="#FFFFFF" fill="#FFFFFF"></path>
            <path d="M565.802789,259.914894 L559.643426,259.914894 C558.791894,259.914894 558.103586,259.226213 558.103586,258.37766 C558.103586,257.529106 558.791894,256.840426 559.643426,256.840426 L565.802789,256.840426 C566.654321,256.840426 567.342629,257.529106 567.342629,258.37766 C567.342629,259.226213 566.654321,259.914894 565.802789,259.914894" id="Fill-292" stroke="#FFFFFF" fill="#FFFFFF"></path>
            <polygon id="Fill-293" stroke="#979797" points="233.197211 335.239362 353.304781 335.239362 353.304781 252.228723 233.197211 252.228723"></polygon>
            <path d="M234.737052,333.702128 L351.76494,333.702128 L351.76494,253.765957 L234.737052,253.765957 L234.737052,333.702128 Z M353.304781,336.776596 L233.197211,336.776596 C232.347219,336.776596 231.657371,336.087915 231.657371,335.239362 L231.657371,252.228723 C231.657371,251.38017 232.347219,250.691489 233.197211,250.691489 L353.304781,250.691489 C354.154773,250.691489 354.844622,251.38017 354.844622,252.228723 L354.844622,335.239362 C354.844622,336.087915 354.154773,336.776596 353.304781,336.776596 L353.304781,336.776596 Z" id="Fill-294" stroke="#FFFFFF" fill="#FFFFFF"></path>
            <polygon id="Fill-295" stroke="#979797" points="228.577689 252.228723 353.304781 252.228723 353.304781 243.005319 228.577689 243.005319"></polygon>
            <path d="M230.11753,250.691489 L351.76494,250.691489 L351.76494,244.542553 L230.11753,244.542553 L230.11753,250.691489 Z M353.304781,253.765957 L228.577689,253.765957 C227.727697,253.765957 227.037849,253.077277 227.037849,252.228723 L227.037849,243.005319 C227.037849,242.156766 227.727697,241.468085 228.577689,241.468085 L353.304781,241.468085 C354.154773,241.468085 354.844622,242.156766 354.844622,243.005319 L354.844622,252.228723 C354.844622,253.077277 354.154773,253.765957 353.304781,253.765957 L353.304781,253.765957 Z" id="Fill-296" stroke="#FFFFFF" fill="#FFFFFF"></path>
            <polygon id="Fill-297" stroke="#979797" points="233.197211 243.005319 353.304781 243.005319 353.304781 233.781915 233.197211 233.781915"></polygon>
            <path d="M234.737052,241.468085 L351.76494,241.468085 L351.76494,235.319149 L234.737052,235.319149 L234.737052,241.468085 Z M353.304781,244.542553 L233.197211,244.542553 C232.347219,244.542553 231.657371,243.853872 231.657371,243.005319 L231.657371,233.781915 C231.657371,232.933362 232.347219,232.244681 233.197211,232.244681 L353.304781,232.244681 C354.154773,232.244681 354.844622,232.933362 354.844622,233.781915 L354.844622,243.005319 C354.844622,243.853872 354.154773,244.542553 353.304781,244.542553 L353.304781,244.542553 Z" id="Fill-298" stroke="#FFFFFF" fill="#FFFFFF"></path>
            <polygon id="Fill-299" stroke="#979797" points="297.870518 289.12234 316.348606 289.12234 316.348606 267.601064 297.870518 267.601064"></polygon>
            <path d="M299.410359,287.585106 L314.808765,287.585106 L314.808765,269.138298 L299.410359,269.138298 L299.410359,287.585106 Z M316.348606,290.659574 L297.870518,290.659574 C297.020526,290.659574 296.330677,289.970894 296.330677,289.12234 L296.330677,267.601064 C296.330677,266.752511 297.020526,266.06383 297.870518,266.06383 L316.348606,266.06383 C317.198598,266.06383 317.888446,266.752511 317.888446,267.601064 L317.888446,289.12234 C317.888446,289.970894 317.198598,290.659574 316.348606,290.659574 L316.348606,290.659574 Z" id="Fill-300" stroke="#FFFFFF" fill="#FFFFFF"></path>
            <path d="M316.348606,276.824468 L297.870518,276.824468 C297.020526,276.824468 296.330677,276.135787 296.330677,275.287234 C296.330677,274.438681 297.020526,273.75 297.870518,273.75 L316.348606,273.75 C317.198598,273.75 317.888446,274.438681 317.888446,275.287234 C317.888446,276.135787 317.198598,276.824468 316.348606,276.824468" id="Fill-301" stroke="#FFFFFF" fill="#FFFFFF"></path>
            <polygon id="Fill-302" stroke="#979797" points="242.436255 289.12234 260.914343 289.12234 260.914343 267.601064 242.436255 267.601064"></polygon>
            <path d="M243.976096,287.585106 L259.374502,287.585106 L259.374502,269.138298 L243.976096,269.138298 L243.976096,287.585106 Z M260.914343,290.659574 L242.436255,290.659574 C241.586263,290.659574 240.896414,289.970894 240.896414,289.12234 L240.896414,267.601064 C240.896414,266.752511 241.586263,266.06383 242.436255,266.06383 L260.914343,266.06383 C261.764335,266.06383 262.454183,266.752511 262.454183,267.601064 L262.454183,289.12234 C262.454183,289.970894 261.764335,290.659574 260.914343,290.659574 L260.914343,290.659574 Z" id="Fill-303" stroke="#FFFFFF" fill="#FFFFFF"></path>
            <path d="M260.914343,276.824468 L242.436255,276.824468 C241.586263,276.824468 240.896414,276.135787 240.896414,275.287234 C240.896414,274.438681 241.586263,273.75 242.436255,273.75 L260.914343,273.75 C261.764335,273.75 262.454183,274.438681 262.454183,275.287234 C262.454183,276.135787 261.764335,276.824468 260.914343,276.824468" id="Fill-304" stroke="#FFFFFF" fill="#FFFFFF"></path>
            <polygon id="Fill-305" stroke="#979797" points="297.870518 319.867021 316.348606 319.867021 316.348606 298.345745 297.870518 298.345745"></polygon>
            <path d="M299.410359,318.329787 L314.808765,318.329787 L314.808765,299.882979 L299.410359,299.882979 L299.410359,318.329787 Z M316.348606,321.404255 L297.870518,321.404255 C297.020526,321.404255 296.330677,320.715574 296.330677,319.867021 L296.330677,298.345745 C296.330677,297.497191 297.020526,296.808511 297.870518,296.808511 L316.348606,296.808511 C317.198598,296.808511 317.888446,297.497191 317.888446,298.345745 L317.888446,319.867021 C317.888446,320.715574 317.198598,321.404255 316.348606,321.404255 L316.348606,321.404255 Z" id="Fill-306" stroke="#FFFFFF" fill="#FFFFFF"></path>
            <path d="M316.348606,307.569149 L297.870518,307.569149 C297.020526,307.569149 296.330677,306.880468 296.330677,306.031915 C296.330677,305.183362 297.020526,304.494681 297.870518,304.494681 L316.348606,304.494681 C317.198598,304.494681 317.888446,305.183362 317.888446,306.031915 C317.888446,306.880468 317.198598,307.569149 316.348606,307.569149" id="Fill-307" stroke="#FFFFFF" fill="#FFFFFF"></path>
            <polygon id="Fill-308" stroke="#979797" points="242.436255 319.867021 260.914343 319.867021 260.914343 298.345745 242.436255 298.345745"></polygon>
            <path d="M243.976096,318.329787 L259.374502,318.329787 L259.374502,299.882979 L243.976096,299.882979 L243.976096,318.329787 Z M260.914343,321.404255 L242.436255,321.404255 C241.586263,321.404255 240.896414,320.715574 240.896414,319.867021 L240.896414,298.345745 C240.896414,297.497191 241.586263,296.808511 242.436255,296.808511 L260.914343,296.808511 C261.764335,296.808511 262.454183,297.497191 262.454183,298.345745 L262.454183,319.867021 C262.454183,320.715574 261.764335,321.404255 260.914343,321.404255 L260.914343,321.404255 Z" id="Fill-309" stroke="#FFFFFF" fill="#FFFFFF"></path>
            <path d="M260.914343,307.569149 L242.436255,307.569149 C241.586263,307.569149 240.896414,306.880468 240.896414,306.031915 C240.896414,305.183362 241.586263,304.494681 242.436255,304.494681 L260.914343,304.494681 C261.764335,304.494681 262.454183,305.183362 262.454183,306.031915 C262.454183,306.880468 261.764335,307.569149 260.914343,307.569149" id="Fill-310" stroke="#FFFFFF" fill="#FFFFFF"></path>
            <polygon id="Fill-311" stroke="#FFFFFF" points="270.153386 289.12234 288.631474 289.12234 288.631474 267.601064 270.153386 267.601064"></polygon>
            <path d="M271.693227,287.585106 L287.091633,287.585106 L287.091633,269.138298 L271.693227,269.138298 L271.693227,287.585106 Z M288.631474,290.659574 L270.153386,290.659574 C269.303394,290.659574 268.613546,289.970894 268.613546,289.12234 L268.613546,267.601064 C268.613546,266.752511 269.303394,266.06383 270.153386,266.06383 L288.631474,266.06383 C289.481466,266.06383 290.171315,266.752511 290.171315,267.601064 L290.171315,289.12234 C290.171315,289.970894 289.481466,290.659574 288.631474,290.659574 L288.631474,290.659574 Z" id="Fill-312" stroke="#FFFFFF" fill="#FFFFFF"></path>
            <path d="M288.631474,276.824468 L270.153386,276.824468 C269.303394,276.824468 268.613546,276.135787 268.613546,275.287234 C268.613546,274.438681 269.303394,273.75 270.153386,273.75 L288.631474,273.75 C289.481466,273.75 290.171315,274.438681 290.171315,275.287234 C290.171315,276.135787 289.481466,276.824468 288.631474,276.824468" id="Fill-313" stroke="#FFFFFF" fill="#FFFFFF"></path>
            <polygon id="Fill-314" stroke="#979797" points="270.153386 319.867021 288.631474 319.867021 288.631474 298.345745 270.153386 298.345745"></polygon>
            <path d="M271.693227,318.329787 L287.091633,318.329787 L287.091633,299.882979 L271.693227,299.882979 L271.693227,318.329787 Z M288.631474,321.404255 L270.153386,321.404255 C269.303394,321.404255 268.613546,320.715574 268.613546,319.867021 L268.613546,298.345745 C268.613546,297.497191 269.303394,296.808511 270.153386,296.808511 L288.631474,296.808511 C289.481466,296.808511 290.171315,297.497191 290.171315,298.345745 L290.171315,319.867021 C290.171315,320.715574 289.481466,321.404255 288.631474,321.404255 L288.631474,321.404255 Z" id="Fill-315" stroke="#FFFFFF" fill="#FFFFFF"></path>
            <path d="M288.631474,307.569149 L270.153386,307.569149 C269.303394,307.569149 268.613546,306.880468 268.613546,306.031915 C268.613546,305.183362 269.303394,304.494681 270.153386,304.494681 L288.631474,304.494681 C289.481466,304.494681 290.171315,305.183362 290.171315,306.031915 C290.171315,306.880468 289.481466,307.569149 288.631474,307.569149" id="Fill-316" stroke="#FFFFFF" fill="#FFFFFF"></path>
            <polygon id="Fill-317" stroke="#979797" points="325.587649 289.12234 344.065737 289.12234 344.065737 267.601064 325.587649 267.601064"></polygon>
            <path d="M327.12749,287.585106 L342.525896,287.585106 L342.525896,269.138298 L327.12749,269.138298 L327.12749,287.585106 Z M344.065737,290.659574 L325.587649,290.659574 C324.737657,290.659574 324.047809,289.970894 324.047809,289.12234 L324.047809,267.601064 C324.047809,266.752511 324.737657,266.06383 325.587649,266.06383 L344.065737,266.06383 C344.915729,266.06383 345.605578,266.752511 345.605578,267.601064 L345.605578,289.12234 C345.605578,289.970894 344.915729,290.659574 344.065737,290.659574 L344.065737,290.659574 Z" id="Fill-318" stroke="#FFFFFF" fill="#FFFFFF"></path>
            <path d="M344.065737,276.824468 L325.587649,276.824468 C324.737657,276.824468 324.047809,276.135787 324.047809,275.287234 C324.047809,274.438681 324.737657,273.75 325.587649,273.75 L344.065737,273.75 C344.915729,273.75 345.605578,274.438681 345.605578,275.287234 C345.605578,276.135787 344.915729,276.824468 344.065737,276.824468" id="Fill-319" stroke="#FFFFFF" fill="#FFFFFF"></path>
            <polygon id="Fill-320" stroke="#FFFFFF" points="325.587649 319.867021 344.065737 319.867021 344.065737 298.345745 325.587649 298.345745"></polygon>
            <path d="M327.12749,318.329787 L342.525896,318.329787 L342.525896,299.882979 L327.12749,299.882979 L327.12749,318.329787 Z M344.065737,321.404255 L325.587649,321.404255 C324.737657,321.404255 324.047809,320.715574 324.047809,319.867021 L324.047809,298.345745 C324.047809,297.497191 324.737657,296.808511 325.587649,296.808511 L344.065737,296.808511 C344.915729,296.808511 345.605578,297.497191 345.605578,298.345745 L345.605578,319.867021 C345.605578,320.715574 344.915729,321.404255 344.065737,321.404255 L344.065737,321.404255 Z" id="Fill-321" stroke="#FFFFFF" fill="#FFFFFF"></path>
            <path d="M344.065737,307.569149 L325.587649,307.569149 C324.737657,307.569149 324.047809,306.880468 324.047809,306.031915 C324.047809,305.183362 324.737657,304.494681 325.587649,304.494681 L344.065737,304.494681 C344.915729,304.494681 345.605578,305.183362 345.605578,306.031915 C345.605578,306.880468 344.915729,307.569149 344.065737,307.569149" id="Fill-322" stroke="#FFFFFF" fill="#FFFFFF"></path>
            <path d="M353.304781,259.914894 L325.587649,259.914894 C324.737657,259.914894 324.047809,259.226213 324.047809,258.37766 C324.047809,257.529106 324.737657,256.840426 325.587649,256.840426 L353.304781,256.840426 C354.154773,256.840426 354.844622,257.529106 354.844622,258.37766 C354.844622,259.226213 354.154773,259.914894 353.304781,259.914894" id="Fill-323" stroke="#FFFFFF" fill="#FFFFFF"></path>
            <path d="M239.356574,259.914894 L233.197211,259.914894 C232.347219,259.914894 231.657371,259.226213 231.657371,258.37766 C231.657371,257.529106 232.347219,256.840426 233.197211,256.840426 L239.356574,256.840426 C240.206566,256.840426 240.896414,257.529106 240.896414,258.37766 C240.896414,259.226213 240.206566,259.914894 239.356574,259.914894" id="Fill-324" stroke="#FFFFFF" fill="#FFFFFF"></path>
            <path d="M503.439243,137.398936 C494.936243,137.398936 488.040837,130.515202 488.040837,122.026596 C488.040837,113.537989 494.936243,106.654255 503.439243,106.654255 C503.439243,89.6724309 517.225436,75.9095745 534.236056,75.9095745 C551.246675,75.9095745 565.032869,89.6724309 565.032869,106.654255 C573.537408,106.654255 580.431275,113.536452 580.431275,122.026596 C584.684315,122.026596 588.130478,125.466926 588.130478,129.712766 C588.130478,133.958606 584.684315,137.398936 580.431275,137.398936 L503.439243,137.398936" id="Fill-362" stroke="#FFFFFF"></path>
            <path d="M534.236056,77.4468085 C518.103145,77.4468085 504.979084,90.5486543 504.979084,106.654255 C504.979084,107.502809 504.290775,108.191489 503.439243,108.191489 C495.797014,108.191489 489.580677,114.39884 489.580677,122.026596 C489.580677,129.654351 495.797014,135.861702 503.439243,135.861702 L580.431275,135.861702 C583.828163,135.861702 586.590637,133.103904 586.590637,129.712766 C586.590637,126.321628 583.828163,123.56383 580.431275,123.56383 C579.579743,123.56383 578.891434,122.875149 578.891434,122.026596 C578.891434,114.39884 572.675098,108.191489 565.032869,108.191489 C564.181337,108.191489 563.493028,107.502809 563.493028,106.654255 C563.493028,90.5486543 550.368966,77.4468085 534.236056,77.4468085 Z M580.431275,138.93617 L503.439243,138.93617 C494.10011,138.93617 486.500996,131.34992 486.500996,122.026596 C486.500996,113.210559 493.296313,105.947128 501.931739,105.183122 C502.704739,88.0629468 516.89899,74.3723404 534.236056,74.3723404 C551.573122,74.3723404 565.767373,88.0629468 566.540373,105.183122 C574.707687,105.905622 581.228912,112.441941 581.912602,120.607729 C586.304227,121.317931 589.670319,125.130271 589.670319,129.712766 C589.670319,134.799473 585.526608,138.93617 580.431275,138.93617 L580.431275,138.93617 Z" id="Fill-363" stroke="#FFFFFF" fill="#FFFFFF"></path>
            <path d="M508.058765,108.191489 C507.207233,108.191489 506.518924,107.502809 506.518924,106.654255 C506.518924,91.3972074 518.953137,78.9840426 534.236056,78.9840426 C535.087588,78.9840426 535.775896,79.6727234 535.775896,80.5212766 C535.775896,81.3698298 535.087588,82.0585106 534.236056,82.0585106 C520.651582,82.0585106 509.598606,93.0927766 509.598606,106.654255 C509.598606,107.502809 508.910297,108.191489 508.058765,108.191489" id="Fill-364" stroke="#FFFFFF" fill="#FFFFFF"></path>
            <path d="M492.660359,123.56383 C491.808827,123.56383 491.120518,122.875149 491.120518,122.026596 C491.120518,115.245856 496.647006,109.728723 503.439243,109.728723 C504.290775,109.728723 504.979084,110.417404 504.979084,111.265957 C504.979084,112.114511 504.290775,112.803191 503.439243,112.803191 C498.34391,112.803191 494.200199,116.939888 494.200199,122.026596 C494.200199,122.875149 493.51189,123.56383 492.660359,123.56383" id="Fill-365" stroke="#FFFFFF" fill="#FFFFFF"></path>
            <path d="M287.861554,75.9095745 C287.861554,67.4194309 294.75696,60.537234 303.25996,60.537234 C311.7645,60.537234 318.658367,67.4194309 318.658367,75.9095745 C327.162906,75.9095745 334.056773,82.7917713 334.056773,91.2819149 C338.309813,91.2819149 341.755976,94.7222447 341.755976,98.9680851 C341.755976,103.213926 338.309813,106.654255 334.056773,106.654255 L287.861554,106.654255 C279.358554,106.654255 272.463147,99.7705213 272.463147,91.2819149 C272.463147,82.7917713 279.358554,75.9095745 287.861554,75.9095745" id="Fill-366" stroke="#FFFFFF"></path>
            <path d="M303.25996,62.0744681 C295.619271,62.0744681 289.401394,68.2818191 289.401394,75.9095745 C289.401394,76.7581277 288.711546,77.4468085 287.861554,77.4468085 C280.220865,77.4468085 274.002988,83.6541596 274.002988,91.2819149 C274.002988,98.9096702 280.220865,105.117021 287.861554,105.117021 L334.056773,105.117021 C337.453661,105.117021 340.216135,102.359223 340.216135,98.9680851 C340.216135,95.5769468 337.453661,92.8191489 334.056773,92.8191489 C333.206781,92.8191489 332.516932,92.1304681 332.516932,91.2819149 C332.516932,83.6541596 326.299056,77.4468085 318.658367,77.4468085 C317.808375,77.4468085 317.118526,76.7581277 317.118526,75.9095745 C317.118526,68.2818191 310.900649,62.0744681 303.25996,62.0744681 Z M334.056773,108.191489 L287.861554,108.191489 C278.52242,108.191489 270.923307,100.605239 270.923307,91.2819149 C270.923307,82.4535798 277.734022,75.184 286.386386,74.4369043 C287.134749,65.7991862 294.416655,59 303.25996,59 C312.103265,59 319.385171,65.7991862 320.133534,74.4369043 C328.317787,75.1440319 334.85441,81.6865 335.53656,89.8630479 C339.929725,90.57325 343.295817,94.3855904 343.295817,98.9680851 C343.295817,104.054793 339.152106,108.191489 334.056773,108.191489 L334.056773,108.191489 Z" id="Fill-367" stroke="#FFFFFF" fill="#FFFFFF"></path>
            <path d="M292.481076,77.4468085 C291.631084,77.4468085 290.941235,76.7581277 290.941235,75.9095745 C290.941235,69.1288351 296.467723,63.6117021 303.25996,63.6117021 C304.109952,63.6117021 304.799801,64.300383 304.799801,65.1489362 C304.799801,65.9974894 304.109952,66.6861702 303.25996,66.6861702 C298.164627,66.6861702 294.020916,70.822867 294.020916,75.9095745 C294.020916,76.7581277 293.331068,77.4468085 292.481076,77.4468085" id="Fill-368" stroke="#FFFFFF" fill="#FFFFFF"></path>
            <path d="M277.082669,92.8191489 C276.232677,92.8191489 275.542829,92.1304681 275.542829,91.2819149 C275.542829,84.5011755 281.069317,78.9840426 287.861554,78.9840426 C288.711546,78.9840426 289.401394,79.6727234 289.401394,80.5212766 C289.401394,81.3698298 288.711546,82.0585106 287.861554,82.0585106 C282.766221,82.0585106 278.62251,86.1952074 278.62251,91.2819149 C278.62251,92.1304681 277.932661,92.8191489 277.082669,92.8191489" id="Fill-369" stroke="#FFFFFF" fill="#FFFFFF"></path>
            <path d="M657.423307,209.648936 C656.571775,209.648936 655.883466,208.960255 655.883466,208.111702 C655.883466,200.483947 649.667129,194.276596 642.0249,194.276596 C641.173369,194.276596 640.48506,193.587915 640.48506,192.739362 C640.48506,185.111606 634.268723,178.904255 626.626494,178.904255 C618.984265,178.904255 612.767928,185.111606 612.767928,192.739362 C612.767928,193.587915 612.07962,194.276596 611.228088,194.276596 C608.681191,194.276596 606.608566,196.345713 606.608566,198.888298 C606.608566,199.736851 605.920257,200.425532 605.068725,200.425532 L574.271912,200.425532 C573.42038,200.425532 572.732072,199.736851 572.732072,198.888298 C572.732072,198.039745 573.42038,197.351064 574.271912,197.351064 L603.684408,197.351064 C604.301884,194.32425 606.705576,191.938463 609.745221,191.34509 C610.458167,182.670479 617.757012,175.829787 626.626494,175.829787 C635.468259,175.829787 642.751705,182.628973 643.501608,191.266691 C652.152432,192.013787 658.963147,199.283367 658.963147,208.111702 C658.963147,208.960255 658.274839,209.648936 657.423307,209.648936" id="Fill-370" stroke="#FFFFFF" fill="#FFFFFF"></path>
            <path d="M620.467131,208.111702 L589.670319,208.111702 C588.818787,208.111702 588.130478,207.423021 588.130478,206.574468 C588.130478,205.725915 588.818787,205.037234 589.670319,205.037234 L620.467131,205.037234 C621.318663,205.037234 622.006972,205.725915 622.006972,206.574468 C622.006972,207.423021 621.318663,208.111702 620.467131,208.111702" id="Fill-371" stroke="#FFFFFF" fill="#FFFFFF"></path>
            <path d="M676.671315,215.797872 L645.874502,215.797872 C645.02297,215.797872 644.334661,215.109191 644.334661,214.260638 C644.334661,210.8695 641.572187,208.111702 638.175299,208.111702 C637.323767,208.111702 636.635458,207.423021 636.635458,206.574468 C636.635458,205.725915 637.323767,205.037234 638.175299,205.037234 C642.745546,205.037234 646.550492,208.366883 647.286536,212.723404 L676.671315,212.723404 C677.522847,212.723404 678.211155,213.412085 678.211155,214.260638 C678.211155,215.109191 677.522847,215.797872 676.671315,215.797872" id="Fill-372" stroke="#FFFFFF" fill="#FFFFFF"></path>
            <path d="M133.87749,208.111702 L87.6822709,208.111702 C86.8322789,208.111702 86.1424303,207.423021 86.1424303,206.574468 C86.1424303,205.725915 86.8322789,205.037234 87.6822709,205.037234 L132.465456,205.037234 C133.119888,201.161867 136.205729,198.09816 140.096906,197.469431 C140.779056,189.292883 147.315679,182.750415 155.499932,182.043287 C156.248295,173.405569 163.530201,166.606383 172.373506,166.606383 C181.216811,166.606383 188.498717,173.405569 189.24708,182.043287 C197.899444,182.790383 204.710159,190.059963 204.710159,198.888298 C204.710159,199.736851 204.020311,200.425532 203.170319,200.425532 C202.320327,200.425532 201.630478,199.736851 201.630478,198.888298 C201.630478,191.260543 195.412602,185.053191 187.771912,185.053191 C186.92192,185.053191 186.232072,184.364511 186.232072,183.515957 C186.232072,175.888202 180.014195,169.680851 172.373506,169.680851 C164.732817,169.680851 158.51494,175.888202 158.51494,183.515957 C158.51494,184.364511 157.825092,185.053191 156.9751,185.053191 C149.33441,185.053191 143.116534,191.260543 143.116534,198.888298 C143.116534,199.736851 142.426685,200.425532 141.576693,200.425532 C138.179805,200.425532 135.417331,203.18333 135.417331,206.574468 C135.417331,207.423021 134.727482,208.111702 133.87749,208.111702" id="Fill-373" stroke="#FFFFFF" fill="#FFFFFF"></path>
            <path d="M226.267928,215.797872 L195.471116,215.797872 C194.621124,215.797872 193.931275,215.109191 193.931275,214.260638 C193.931275,210.8695 191.168801,208.111702 187.771912,208.111702 C186.92192,208.111702 186.232072,207.423021 186.232072,206.574468 C186.232072,198.946713 180.014195,192.739362 172.373506,192.739362 C171.523514,192.739362 170.833665,192.050681 170.833665,191.202128 C170.833665,190.353574 171.523514,189.664894 172.373506,189.664894 C181.233749,189.664894 188.527974,196.493287 189.251699,205.155601 C193.142876,205.78433 196.228717,208.848037 196.883149,212.723404 L226.267928,212.723404 C227.11792,212.723404 227.807769,213.412085 227.807769,214.260638 C227.807769,215.109191 227.11792,215.797872 226.267928,215.797872" id="Fill-374" stroke="#FFFFFF" fill="#FFFFFF"></path>
            <path d="M153.125498,223.484043 L106.930279,223.484043 C106.080287,223.484043 105.390438,222.795362 105.390438,221.946809 C105.390438,221.098255 106.080287,220.409574 106.930279,220.409574 L153.125498,220.409574 C153.97549,220.409574 154.665339,221.098255 154.665339,221.946809 C154.665339,222.795362 153.97549,223.484043 153.125498,223.484043" id="Fill-375" stroke="#FFFFFF" fill="#FFFFFF"></path>
        </g>
    </g>
</svg>